<?xml version="1.0" encoding="utf-8"?>
<!-- Generator: Adobe Illustrator 15.1.0, SVG Export Plug-In . SVG Version: 6.00 Build 0)  -->
<!DOCTYPE svg PUBLIC "-//W3C//DTD SVG 1.1//EN" "http://www.w3.org/Graphics/SVG/1.1/DTD/svg11.dtd">
<svg version="1.1" id="Layer_1" xmlns="http://www.w3.org/2000/svg" xmlns:xlink="http://www.w3.org/1999/xlink" x="0px" y="0px"
	 width="350px" height="350px" viewBox="0 0 350 350" enable-background="new 0 0 350 350" xml:space="preserve">
<g>
	<g>
		<path fill="#010101" d="M128.562,81.276c0,1.197,0.146,2.393,0.248,3.587c-34.023,16.561-57.402,52.888-61.224,95.34
			c-23.75,15.057-36.896,34.878-36.896,56.342c0,0,0.035,0.452,0.067,0.901c-0.031,0.51-0.067,1.103-0.067,1.103
			c0,36.286,77.017,55.274,153.096,55.274c76.083,0,153.102-18.988,153.102-55.274c0,0-0.035-0.609-0.066-1.111
			c0.036-0.453,0.066-0.893,0.066-0.893c0-21.464-13.146-41.285-36.898-56.342c-3.821-42.452-27.198-78.777-61.221-95.34
			c0.103-1.194,0.249-2.39,0.249-3.587c0-26.754-24.775-48.519-55.229-48.519S128.562,54.522,128.562,81.276z M30.802,236.759
			c0,0.006-0.003,0.044-0.003,0.053L30.802,236.759z M336.756,238.282c0,0.001-0.001,0.048-0.001,0.048l-0.011,0.105
			C336.745,238.427,336.754,238.332,336.756,238.282z"/>
		<g>
			<radialGradient id="SVGID_1_" cx="183.7891" cy="81.2783" r="42.764" gradientUnits="userSpaceOnUse">
				<stop  offset="0" style="stop-color:#F0A61F"/>
				<stop  offset="1" style="stop-color:#FFDE00"/>
			</radialGradient>
			<path fill="url(#SVGID_1_)" d="M183.789,41.999c-25.396,0-45.986,17.59-45.986,39.277c0,21.697,20.59,39.282,45.986,39.282
				c25.396,0,45.985-17.584,45.985-39.282C229.774,59.589,209.186,41.999,183.789,41.999z M183.789,94.11
				c-8.98,0-16.285-5.757-16.285-12.834c0-7.071,7.305-12.823,16.285-12.823c8.978,0,16.283,5.752,16.283,12.823
				C200.072,88.353,192.767,94.11,183.789,94.11z"/>
			<path fill="#010101" d="M183.789,41.999v-2.772c-13.341,0.002-25.465,4.612-34.319,12.17
				c-8.845,7.544-14.442,18.137-14.439,29.879c-0.002,11.748,5.595,22.342,14.439,29.885c8.854,7.557,20.978,12.167,34.319,12.169
				c13.341-0.002,25.466-4.613,34.317-12.169c8.846-7.543,14.444-18.138,14.44-29.885c0.004-11.742-5.595-22.335-14.439-29.879
				c-8.853-7.558-20.978-12.168-34.318-12.17V41.999v2.773c12.058-0.002,22.925,4.182,30.715,10.842
				c7.797,6.672,12.494,15.717,12.498,25.662c-0.004,9.951-4.701,18.997-12.498,25.668c-7.79,6.66-18.657,10.842-30.715,10.841
				c-12.056,0.001-22.924-4.181-30.715-10.841c-7.796-6.671-12.494-15.717-12.498-25.668c0.004-9.944,4.699-18.99,12.498-25.662
				c7.791-6.66,18.659-10.844,30.715-10.842V41.999z M183.789,94.11v-2.773c-3.898,0.003-7.385-1.264-9.792-3.168
				c-1.208-0.952-2.143-2.051-2.767-3.215c-0.626-1.166-0.949-2.387-0.953-3.677c0.003-1.287,0.327-2.507,0.95-3.673
				c0.936-1.742,2.584-3.349,4.768-4.509c2.179-1.163,4.872-1.87,7.795-1.869c3.897-0.003,7.384,1.262,9.793,3.166
				c1.207,0.951,2.143,2.049,2.768,3.212c0.624,1.166,0.949,2.386,0.95,3.673c-0.001,1.29-0.326,2.512-0.95,3.677
				c-0.934,1.745-2.583,3.353-4.765,4.516c-2.181,1.162-4.872,1.868-7.796,1.868V94.11v2.772c5.082-0.004,9.737-1.616,13.226-4.358
				c1.74-1.374,3.193-3.038,4.22-4.944c1.025-1.903,1.615-4.057,1.611-6.305c0.004-2.247-0.588-4.398-1.614-6.299
				c-1.541-2.859-4.025-5.172-7.04-6.778c-3.021-1.607-6.592-2.517-10.402-2.518c-5.081,0.003-9.738,1.614-13.225,4.354
				c-1.742,1.372-3.194,3.036-4.22,4.943c-1.027,1.901-1.613,4.053-1.613,6.299c0,2.248,0.586,4.402,1.613,6.305
				c1.541,2.859,4.026,5.173,7.042,6.782c3.021,1.607,6.59,2.519,10.402,2.52V94.11z"/>
			<linearGradient id="SVGID_2_" gradientUnits="userSpaceOnUse" x1="76.1899" y1="143.5908" x2="291.3857" y2="143.5908">
				<stop  offset="0" style="stop-color:#FFDE00"/>
				<stop  offset="1" style="stop-color:#F0A61F"/>
			</linearGradient>
			<path fill="url(#SVGID_2_)" d="M198.993,84.79h-30.407c-51.028,0-92.396,48.174-92.396,107.604c0,3.371,0.15,6.702,0.41,9.998
				c22.317-8.586,52.994-13.892,86.866-13.892h40.655c33.868,0,64.54,5.306,86.854,13.888c0.261-3.292,0.41-6.623,0.41-9.994
				C291.386,132.964,250.019,84.79,198.993,84.79z"/>
			<path fill="#010101" d="M198.993,84.79v-2.773h-30.407c-26.407-0.003-50.279,12.484-67.438,32.482
				c-17.172,20.002-27.729,47.537-27.731,77.895c0,3.452,0.154,6.856,0.419,10.217l0.29,3.702l3.468-1.332
				c21.889-8.43,52.295-13.713,85.872-13.707h40.655c33.575-0.006,63.976,5.277,85.857,13.702l3.469,1.334l0.292-3.702
				c0.266-3.357,0.42-6.762,0.42-10.214c-0.003-30.358-10.562-57.893-27.732-77.895c-17.158-19.995-41.028-32.485-67.434-32.482
				V84.79v2.772c24.618,0.004,46.943,11.602,63.226,30.549c16.268,18.943,26.396,45.213,26.394,74.282
				c0,3.288-0.146,6.548-0.4,9.775l2.764,0.219l0.995-2.588c-22.744-8.74-53.687-14.067-87.85-14.072h-40.655
				c-34.166,0.005-65.114,5.332-87.863,14.075l0.997,2.589l2.764-0.218c-0.254-3.232-0.401-6.492-0.401-9.78
				c-0.002-29.069,10.124-55.339,26.393-74.282c16.283-18.947,38.609-30.545,63.23-30.549h30.407V84.79z"/>
			<linearGradient id="SVGID_3_" gradientUnits="userSpaceOnUse" x1="39.9326" y1="209.0625" x2="327.6465" y2="209.0625">
				<stop  offset="0" style="stop-color:#FFDE00"/>
				<stop  offset="1" style="stop-color:#F0A61F"/>
			</linearGradient>
			<path fill="url(#SVGID_3_)" d="M327.646,236.545c0,19.871-62.034,16.799-130.255,16.799h-40.65
				c-68.222,0-116.809-1.02-116.809-16.799c0-39.726,55.307-71.935,123.53-71.935h40.652
				C272.336,164.61,327.646,196.819,327.646,236.545z"/>
			<path fill="#010101" d="M327.646,236.545h-2.772c-0.013,1.344-0.36,2.385-1.126,3.466c-0.673,0.939-1.721,1.883-3.193,2.784
				c-2.57,1.581-6.419,2.966-11.277,4.047c-7.289,1.633-16.836,2.624-27.935,3.188c-11.102,0.563-23.768,0.714-37.383,0.713
				c-14.668,0.001-30.438-0.172-46.568-0.172h-40.65c-34.09,0.002-63.258-0.261-83.691-2.464
				c-10.203-1.093-18.237-2.703-23.404-4.844c-2.587-1.057-4.419-2.245-5.482-3.375c-0.538-0.566-0.89-1.108-1.12-1.639
				c-0.225-0.538-0.336-1.075-0.338-1.704c0.003-9.278,3.21-18.143,9.177-26.369c8.941-12.33,24.169-23.092,43.529-30.699
				c19.35-7.616,42.795-12.095,68.051-12.094h40.652c33.672-0.006,64.127,7.975,85.952,20.693
				c10.915,6.355,19.661,13.882,25.626,22.1c5.971,8.227,9.177,17.091,9.181,26.369H327.646h2.772
				c0.003-10.585-3.704-20.644-10.237-29.628c-9.813-13.487-25.913-24.695-45.988-32.602c-20.077-7.898-44.168-12.475-70.078-12.478
				h-40.652c-34.549,0.008-65.859,8.131-88.744,21.447c-11.44,6.663-20.785,14.637-27.322,23.632
				c-6.533,8.984-10.241,19.043-10.237,29.628c-0.001,1.342,0.265,2.664,0.784,3.876c0.978,2.29,2.761,4.117,4.999,5.594
				c3.937,2.581,9.417,4.321,16.389,5.694c10.448,2.033,24.268,3.119,40.768,3.717c16.493,0.595,35.646,0.691,56.643,0.691h40.65
				c16.093,0,31.86,0.17,46.568,0.17c23.79-0.004,44.776-0.437,60.081-2.826c7.664-1.209,13.914-2.87,18.558-5.438
				c2.315-1.293,4.251-2.835,5.648-4.769c1.399-1.923,2.182-4.259,2.172-6.709H327.646z"/>
			<linearGradient id="SVGID_4_" gradientUnits="userSpaceOnUse" x1="39.9326" y1="238.5469" x2="327.6465" y2="238.5469">
				<stop  offset="0.0056" style="stop-color:#FEEA00"/>
				<stop  offset="0.4326" style="stop-color:#FFDE00"/>
				<stop  offset="1" style="stop-color:#F5BD17"/>
			</linearGradient>
			<path fill="url(#SVGID_4_)" d="M327.646,238.549c0,25.422-64.409,46.032-143.86,46.032c-79.449,0-143.854-20.61-143.854-46.032
				c0-25.427,64.404-46.037,143.854-46.037C263.237,192.512,327.646,213.122,327.646,238.549z"/>
			<path fill="#010101" d="M327.646,238.549h-2.772c-0.004,2.582-0.803,5.139-2.486,7.78c-2.935,4.62-8.698,9.349-16.86,13.634
				c-12.236,6.451-29.741,11.951-50.637,15.792c-20.897,3.844-45.194,6.053-71.104,6.053c-39.48,0.006-75.224-5.139-100.876-13.354
				c-12.82-4.095-23.11-8.978-30-14.2c-3.448-2.605-6.037-5.286-7.718-7.925c-1.685-2.642-2.482-5.198-2.486-7.78
				c0.003-2.588,0.801-5.141,2.486-7.785c2.933-4.62,8.696-9.35,16.858-13.635c12.235-6.449,29.742-11.952,50.633-15.791
				c20.896-3.845,45.191-6.054,71.103-6.054c39.48-0.006,75.227,5.136,100.879,13.353c12.82,4.094,23.111,8.979,30.001,14.202
				c3.449,2.606,6.036,5.288,7.722,7.925c1.684,2.645,2.482,5.197,2.486,7.785H327.646h2.772c0.003-3.775-1.213-7.424-3.36-10.772
				c-3.773-5.87-10.29-10.981-18.948-15.555c-12.998-6.836-30.936-12.417-52.218-16.337c-21.276-3.916-45.88-6.146-72.106-6.146
				c-39.969,0.006-76.153,5.17-102.565,13.615c-13.213,4.235-23.99,9.272-31.656,15.063c-3.833,2.9-6.896,6.001-9.046,9.359
				c-2.147,3.349-3.363,6.997-3.359,10.772c-0.003,3.77,1.212,7.42,3.359,10.771c3.775,5.869,10.29,10.978,18.947,15.55
				c12.995,6.838,30.934,12.416,52.213,16.338c21.276,3.913,45.879,6.146,72.106,6.146c39.971-0.007,76.153-5.168,102.568-13.615
				c13.214-4.232,23.99-9.27,31.66-15.061c3.83-2.903,6.895-6.003,9.044-9.358c2.147-3.348,3.363-7.001,3.36-10.771H327.646z"/>
			<path fill="#010101" d="M281.9,238.549c0,11.322-43.927,20.502-98.114,20.502c-54.184,0-98.108-9.18-98.108-20.502
				c0-11.324,43.924-20.507,98.108-20.507C237.974,218.042,281.9,227.225,281.9,238.549z"/>
		</g>
	</g>
	<g>
		<path fill="#010101" d="M152.658,228.227c-8.29,8.304-12.855,19.336-12.855,31.07c0,0.013,0,0.027,0,0.038
			c0.012,11.753,4.597,22.798,12.915,31.099c17.171,17.13,45.076,17.099,62.206-0.065c17.132-17.166,17.104-45.069-0.061-62.201
			L152.658,228.227z"/>
		
			<linearGradient id="SVGID_5_" gradientUnits="userSpaceOnUse" x1="-272.8169" y1="609.5381" x2="-272.1039" y2="609.5381" gradientTransform="matrix(3.3902 65.9665 65.9665 -3.3902 -39101.5 20302.9688)">
			<stop  offset="0" style="stop-color:#FFDE00"/>
			<stop  offset="1" style="stop-color:#F0A61F"/>
		</linearGradient>
		<path fill="url(#SVGID_5_)" d="M205.72,237.323c12.135,12.11,12.157,31.767,0.046,43.904
			c-12.115,12.137-31.765,12.159-43.905,0.049c-12.138-12.113-12.16-31.774-0.046-43.907
			C173.928,225.233,193.582,225.21,205.72,237.323z"/>
		<path fill="#FFFFFF" d="M182.556,236.152c2.253,0.57-6.385,2.637-13.264,9.533c-6.882,6.893-8.746,14.517-9.24,11.927
			c-0.996-5.297,0.921-11.457,5.539-16.083C170.471,236.641,177.07,234.763,182.556,236.152z"/>
		<path fill="#E66325" d="M206.819,255.973c-0.711-2.78-3.244,7.901-11.753,16.429s-17.93,10.854-14.726,11.45
			c6.553,1.215,14.161-1.163,19.874-6.89C206.252,270.911,208.555,262.754,206.819,255.973z"/>
	</g>
	<path fill="#FFFFFF" d="M165.037,102.271c6.818,1.568-19.695,8.549-41.249,30.145c-21.549,21.593-27.853,45.009-29.126,37.139
		c-2.623-16.098,3.697-35.052,18.165-49.537C128.102,104.697,148.391,98.451,165.037,102.271z"/>
</g>
</svg>
