<?xml version="1.0" encoding="utf-8"?>
<!-- Generator: Adobe Illustrator 15.1.0, SVG Export Plug-In . SVG Version: 6.00 Build 0)  -->
<!DOCTYPE svg PUBLIC "-//W3C//DTD SVG 1.1//EN" "http://www.w3.org/Graphics/SVG/1.1/DTD/svg11.dtd">
<svg version="1.1" id="Layer_1" xmlns="http://www.w3.org/2000/svg" xmlns:xlink="http://www.w3.org/1999/xlink" x="0px" y="0px"
	 width="350px" height="350px" viewBox="0 0 350 350" enable-background="new 0 0 350 350" xml:space="preserve">
<g>
	<path fill="#010101" d="M195.203,48.214l-2.873,2.879l0.005,6.193c0.019,15.231-4.446,29.527-12.908,41.342
		c-8.008,11.163-19.151,19.126-31.37,22.42c-4.304,1.158-8.767,1.748-13.261,1.754l-9.068,0.017l0.046,27.753l9.058-0.007
		c6.901-0.003,13.779-0.915,20.444-2.709c7.485-2.019,14.646-5.195,21.409-9.396c-4.893,6.971-10.792,13.936-17.655,20.786
		c-12.437,12.416-27.796,24.331-44.422,34.455l-7.743,4.72l12.948,21.252l3.953,0.959l5.29-3.224
		c28.167-17.169,52.532-38.63,68.602-60.427c6.286-8.532,11.159-16.997,14.667-25.27c0.228,2.092,0.34,4.048,0.34,5.932
		c0,6.37-0.941,12.586-2.797,18.479c-3.562,11.32-10.359,20.793-19.656,27.398l-7.385,5.247l14.388,20.292l4.008,0.685l5.051-3.583
		c14.305-10.145,24.707-24.569,30.083-41.716c2.702-8.598,4.072-17.618,4.072-26.81c0-8.294-1.119-16.655-3.326-24.854
		c-3.078-11.432-8.18-22.212-15.162-32.042c0,0-2.961-4.169-3.644-5.127c1.193-6.526,1.809-12.526,1.809-18.254l-0.01-9.163
		L195.203,48.214z"/>
	<g>
		<path fill="#7A4D1F" d="M201.403,57.278c0.02,17.685-5.475,33.887-14.604,46.63c-9.14,12.74-21.88,21.988-36.382,25.897
			c-5,1.343-10.226,2.058-15.606,2.066l0.014,9.627c6.226-0.003,12.297-0.837,18.096-2.398c16.836-4.541,31.39-15.196,41.705-29.586
			c10.313-14.392,16.43-32.554,16.41-52.244L201.403,57.278z"/>
		<path fill="#7A4D1F" d="M206.699,91.555c5.833,8.226,9.922,17.087,12.346,26.091c3.777,14.019,3.505,28.381-0.529,41.199
			c-4.034,12.812-11.775,24.056-23.054,32.067l5.565,7.853c13.087-9.279,22.082-22.384,26.675-37.031
			c4.608-14.659,4.877-30.869,0.642-46.594c-2.72-10.098-7.299-20-13.798-29.148L206.699,91.555z"/>
		<path fill="#7A4D1F" d="M196.271,90.281c1.187,1.95,2.075,4.037,2.676,6.286c0.834,3.081,1.138,6.475,0.877,10.174
			c-0.438,6.473-2.613,13.861-6.473,21.729c-5.784,11.799-15.326,24.632-27.917,37.197c-12.585,12.565-28.208,24.876-46.108,35.781
			l5.008,8.22c28.224-17.204,51.06-37.768,66.025-58.067c7.481-10.157,13.003-20.258,16.176-29.958
			c1.584-4.852,2.58-9.615,2.896-14.232c0.32-4.619-0.039-9.104-1.18-13.346c-0.836-3.093-2.08-6.043-3.757-8.792L196.271,90.281z"
			/>
	</g>
	<g>
		<path fill="#010101" d="M129.116,130.438l-6.407,6.417c4.253,4.245,7.415,9.113,9.532,14.321
			c2.116,5.205,3.178,10.752,3.175,16.305c0.003,5.543-1.056,11.082-3.158,16.283c-2.109,5.201-5.256,10.064-9.49,14.31
			c-4.248,4.252-9.116,7.414-14.324,9.531c-5.208,2.116-10.759,3.18-16.312,3.177c-5.542,0.003-11.078-1.057-16.275-3.159
			c-5.2-2.108-10.059-5.256-14.303-9.487c-4.254-4.249-7.417-9.117-9.536-14.326c-2.116-5.208-3.177-10.757-3.177-16.309
			c0-5.541,1.056-11.077,3.16-16.273c2.105-5.201,5.252-10.062,9.485-14.306c4.247-4.255,9.115-7.417,14.328-9.536
			c5.208-2.116,10.759-3.176,16.314-3.176c5.541,0,11.077,1.055,16.276,3.159c5.2,2.108,10.062,5.255,14.304,9.487L129.116,130.438
			l6.404-6.418c-5.976-5.967-12.917-10.469-20.311-13.46c-7.392-2.993-15.237-4.485-23.081-4.485
			c-7.863,0-15.729,1.501-23.139,4.511c-7.408,3.007-14.359,7.532-20.339,13.527c-5.967,5.975-10.468,12.915-13.459,20.309
			c-2.993,7.394-4.484,15.24-4.484,23.08c0,7.86,1.501,15.726,4.511,23.135c3.009,7.406,7.532,14.355,13.525,20.334
			c5.976,5.968,12.914,10.47,20.308,13.462c7.394,2.994,15.24,4.486,23.082,4.487c7.861-0.001,15.727-1.502,23.134-4.51
			c7.409-3.008,14.359-7.531,20.336-13.523c5.969-5.979,10.472-12.922,13.465-20.317c2.993-7.396,4.484-15.243,4.485-23.087
			c-0.001-7.862-1.503-15.724-4.51-23.132c-3.007-7.404-7.531-14.352-13.523-20.329L129.116,130.438z"/>
		<path fill="#010101" d="M243.661,172.705l-6.405,6.417c4.252,4.245,7.413,9.116,9.531,14.327
			c2.116,5.207,3.177,10.758,3.177,16.312c0,5.539-1.056,11.075-3.158,16.273c-2.108,5.2-5.253,10.06-9.486,14.303
			c-4.246,4.254-9.117,7.416-14.325,9.534c-5.209,2.115-10.758,3.178-16.312,3.178c-5.54,0-11.077-1.056-16.275-3.158
			c-5.199-2.108-10.061-5.253-14.306-9.488c-4.25-4.243-7.415-9.114-9.533-14.323c-2.116-5.207-3.18-10.758-3.177-16.31
			c-0.003-5.544,1.056-11.081,3.159-16.279c2.105-5.199,5.252-10.062,9.485-14.306c4.247-4.251,9.118-7.414,14.328-9.532
			c5.207-2.115,10.757-3.177,16.312-3.177c5.539,0,11.075,1.055,16.273,3.161c5.199,2.105,10.063,5.253,14.308,9.484
			L243.661,172.705l6.404-6.42c-5.978-5.965-12.917-10.467-20.31-13.458c-7.396-2.993-15.24-4.486-23.08-4.486
			c-7.864,0-15.728,1.502-23.137,4.511c-7.406,3.007-14.358,7.53-20.336,13.523c-5.969,5.977-10.47,12.917-13.461,20.312
			c-2.995,7.394-4.485,15.239-4.487,23.083c0.001,7.86,1.503,15.728,4.513,23.135c3.006,7.409,7.53,14.356,13.523,20.337
			c5.978,5.966,12.92,10.467,20.312,13.457c7.393,2.993,15.238,4.486,23.079,4.486c7.863,0,15.726-1.501,23.137-4.512
			c7.406-3.007,14.355-7.531,20.337-13.524c5.966-5.977,10.468-12.916,13.457-20.308c2.993-7.395,4.486-15.24,4.486-23.08
			c0-7.863-1.502-15.728-4.511-23.138c-3.007-7.407-7.53-14.357-13.521-20.338L243.661,172.705z"/>
		<path fill="#010101" d="M166.663,204.078l-6.407,6.417c4.253,4.246,7.415,9.116,9.533,14.327
			c2.115,5.208,3.177,10.756,3.177,16.311c0,5.54-1.055,11.077-3.158,16.274c-2.108,5.199-5.253,10.062-9.487,14.304
			c-4.248,4.255-9.116,7.416-14.327,9.534c-5.208,2.116-10.758,3.18-16.311,3.177c-5.541,0.003-11.077-1.057-16.274-3.158
			c-5.2-2.108-10.062-5.254-14.303-9.487c-4.256-4.248-7.418-9.116-9.537-14.325c-2.117-5.207-3.177-10.754-3.177-16.305
			c0-5.542,1.056-11.08,3.159-16.28c2.108-5.199,5.253-10.062,9.487-14.306c4.245-4.255,9.115-7.418,14.325-9.534
			c5.208-2.115,10.758-3.179,16.31-3.179c5.542,0,11.079,1.055,16.277,3.162c5.2,2.106,10.063,5.252,14.305,9.485L166.663,204.078
			l6.406-6.418c-5.98-5.968-12.92-10.469-20.312-13.462c-7.396-2.992-15.242-4.486-23.084-4.486c-7.862,0-15.726,1.503-23.135,4.512
			c-7.409,3.009-14.357,7.53-20.336,13.525c-5.969,5.979-10.47,12.92-13.462,20.313c-2.992,7.396-4.484,15.241-4.484,23.084
			c0,7.86,1.502,15.726,4.512,23.132c3.007,7.407,7.533,14.356,13.527,20.333c5.975,5.967,12.916,10.469,20.308,13.46
			c7.394,2.994,15.239,4.487,23.08,4.488c7.862-0.001,15.727-1.503,23.136-4.514c7.407-3.007,14.358-7.529,20.337-13.522
			c5.967-5.978,10.468-12.917,13.46-20.31c2.992-7.396,4.484-15.24,4.484-23.081c0-7.862-1.502-15.727-4.509-23.137
			c-3.009-7.406-7.53-14.356-13.523-20.336L166.663,204.078z"/>
		<path fill="#010101" d="M267.938,47.852l4.225-8.023c-13.539-7.139-26.928-9.445-38.302-9.436
			c-9.857,0.003-18.248,1.691-24.33,3.426c-3.043,0.868-5.512,1.752-7.301,2.459c-1.8,0.71-2.888,1.225-3.263,1.409l-0.024,0.013
			l-0.044,0.021l4.055,8.112l-2.199-8.796l-0.015,0.003l-3.952,0.988L194.9,41.64c-0.201,0.385-1.611,3.144-3.01,7.681
			c-1.391,4.536-2.772,10.865-2.776,18.367c-0.001,4.741,0.56,9.95,2.048,15.391c2.218,8.159,6.571,16.809,13.877,24.957
			c7.304,8.163,17.483,15.815,31.278,22.466c11.692,5.608,25.254,8.571,38.289,10.314c13.026,1.721,25.511,2.135,34.768,2.137
			c8.361,0,14.072-0.343,15.085-0.41l0.085-0.004l0.21-0.018l11.639-0.969l-3.822-11.035c-0.093-0.251-6.139-17.726-16.442-37.647
			c-5.16-9.965-11.381-20.549-18.617-29.99c-3.622-4.722-7.503-9.16-11.697-13.09c-4.195-3.926-8.709-7.357-13.653-9.963
			L267.938,47.852l-4.224,8.024c3.124,1.64,6.417,4.071,9.702,7.151c5.759,5.38,11.441,12.718,16.553,20.675
			c7.688,11.94,14.127,25.239,18.575,35.479c2.228,5.12,3.966,9.479,5.138,12.539c0.587,1.527,1.031,2.731,1.327,3.543
			c0.146,0.405,0.257,0.713,0.328,0.914l0.077,0.222l0.018,0.048l0.002,0.007l8.568-2.967l-0.752-9.036l-0.128,0.01l0.752,9.036
			l-0.584-9.048c-0.702,0.044-6.053,0.371-13.916,0.371c-8.697,0.001-20.488-0.402-32.389-1.981
			c-11.896-1.552-23.915-4.365-32.792-8.672c-8.034-3.874-14.325-7.97-19.241-12.075c-7.37-6.17-11.675-12.309-14.262-18.1
			c-2.572-5.792-3.438-11.323-3.442-16.303c-0.002-5.237,0.992-9.834,1.979-13.04c0.493-1.602,0.977-2.853,1.317-3.653
			c0.171-0.402,0.303-0.69,0.382-0.854l0.074-0.152v-0.003l-5.152-2.63l5.128,2.676l0.024-0.046l-5.152-2.63l5.128,2.676
			l-8.037-4.195l2.199,8.796l0.014-0.003l0.963-0.241l0.903-0.451l-0.045,0.023l-0.013,0.007c0.246-0.121,3.225-1.511,8.007-2.839
			c4.784-1.332,11.372-2.602,18.893-2.6c8.99,0.008,19.246,1.768,29.851,7.346L267.938,47.852z"/>
	</g>
	<g>
		
			<linearGradient id="SVGID_1_" gradientUnits="userSpaceOnUse" x1="-273.8633" y1="609.6309" x2="-272.6598" y2="609.6309" gradientTransform="matrix(3.3903 65.9672 65.9672 -3.3903 -39196.8125 20267.125)">
			<stop  offset="0" style="stop-color:#ED2224"/>
			<stop  offset="1" style="stop-color:#CC2027"/>
		</linearGradient>
		<path fill="url(#SVGID_1_)" d="M129.116,130.438c20.466,20.424,20.497,53.574,0.07,74.04
			c-20.424,20.467-53.573,20.502-74.037,0.073c-20.468-20.426-20.503-53.568-0.08-74.035
			C75.492,110.047,108.647,110.01,129.116,130.438z"/>
		<path fill="#010101" d="M129.116,130.438l-3.406,3.405c6.126,6.118,10.219,13.449,12.319,21.233
			c2.142,7.938,2.193,16.33,0.149,24.283c-2.046,7.961-6.168,15.474-12.4,21.72c-6.116,6.128-13.453,10.221-21.233,12.318
			c-7.931,2.136-16.326,2.183-24.281,0.145c-7.957-2.047-15.466-6.161-21.717-12.396c-6.127-6.114-10.221-13.451-12.317-21.232
			c-2.138-7.937-2.188-16.327-0.145-24.283c2.045-7.958,6.161-15.472,12.398-21.717c6.108-6.126,13.446-10.221,21.231-12.318
			c7.93-2.135,16.324-2.185,24.28-0.145c7.957,2.044,15.469,6.163,21.716,12.394L129.116,130.438l3.397-3.413
			c-7.482-7.467-16.56-12.449-26.121-14.902c-9.575-2.454-19.644-2.395-29.182,0.179c-9.365,2.513-18.222,7.467-25.547,14.809
			c-7.476,7.487-12.458,16.561-14.908,26.125c-2.456,9.573-2.395,19.638,0.171,29.177c2.522,9.359,7.474,18.224,14.822,25.549
			c7.482,7.471,16.555,12.451,26.123,14.905c9.567,2.455,19.636,2.396,29.176-0.176c9.362-2.521,18.223-7.468,25.551-14.81
			c7.473-7.49,12.448-16.559,14.903-26.133c2.457-9.563,2.396-19.633-0.175-29.174c-2.517-9.359-7.471-18.222-14.812-25.551
			L129.116,130.438z"/>
		<path fill="#FFFFFF" d="M90.05,128.464c3.792,0.96-10.766,4.443-22.373,16.075c-11.604,11.625-14.748,24.483-15.573,20.11
			c-1.682-8.932,1.548-19.313,9.341-27.118C69.678,129.283,80.795,126.122,90.05,128.464z"/>
		<path fill="#8F191C" d="M133.726,163.268c-1.199-4.687-5.472,13.324-19.821,27.701c-14.352,14.381-30.237,18.302-24.833,19.31
			c11.051,2.057,23.88-1.957,33.515-11.616C132.767,188.462,136.648,174.708,133.726,163.268z"/>
	</g>
	<g>
		
			<linearGradient id="SVGID_2_" gradientUnits="userSpaceOnUse" x1="-273.7524" y1="609.9219" x2="-272.5493" y2="609.9219" gradientTransform="matrix(3.3902 65.9665 65.9665 -3.3902 -39101.5 20302.9688)">
			<stop  offset="0" style="stop-color:#ED2224"/>
			<stop  offset="1" style="stop-color:#CC2027"/>
		</linearGradient>
		<path fill="url(#SVGID_2_)" d="M243.661,172.705c20.462,20.424,20.503,53.574,0.076,74.04
			c-20.429,20.468-53.569,20.502-74.04,0.078c-20.466-20.424-20.504-53.578-0.077-74.042
			C190.046,152.316,223.19,152.279,243.661,172.705z"/>
		<path fill="#010101" d="M243.661,172.705l-3.401,3.406c6.123,6.118,10.221,13.452,12.319,21.24
			c2.141,7.934,2.183,16.323,0.142,24.276c-2.047,7.957-6.162,15.468-12.391,21.718c-6.113,6.129-13.455,10.225-21.237,12.315
			c-7.936,2.142-16.326,2.19-24.279,0.145c-7.957-2.037-15.47-6.158-21.718-12.389c-6.127-6.116-10.22-13.454-12.317-21.238
			c-2.143-7.931-2.19-16.323-0.146-24.279c2.044-7.954,6.16-15.466,12.396-21.718c6.114-6.127,13.452-10.218,21.231-12.318
			c7.938-2.139,16.326-2.184,24.283-0.146c7.96,2.045,15.475,6.165,21.718,12.394L243.661,172.705l3.404-3.405
			c-7.491-7.476-16.565-12.459-26.129-14.909c-9.569-2.454-19.636-2.396-29.183,0.174c-9.354,2.52-18.214,7.471-25.546,14.818
			c-7.468,7.481-12.453,16.557-14.902,26.121c-2.451,9.569-2.397,19.637,0.172,29.179c2.524,9.355,7.473,18.221,14.814,25.552
			c7.487,7.471,16.562,12.451,26.13,14.903c9.569,2.451,19.637,2.396,29.176-0.179c9.363-2.518,18.217-7.464,25.546-14.809
			c7.469-7.486,12.448-16.562,14.905-26.126c2.453-9.569,2.393-19.637-0.173-29.182c-2.52-9.356-7.468-18.218-14.812-25.545
			L243.661,172.705z"/>
		<path fill="#FFFFFF" d="M204.6,170.731c3.793,0.961-10.77,4.444-22.37,16.074c-11.607,11.625-14.749,24.482-15.576,20.113
			c-1.681-8.935,1.55-19.318,9.337-27.121C184.222,171.549,195.345,168.387,204.6,170.731z"/>
		<path fill="#8F191C" d="M248.274,205.531c-1.198-4.686-5.474,13.328-19.818,27.709c-14.348,14.378-30.239,18.301-24.833,19.312
			c11.05,2.048,23.882-1.967,33.512-11.62C247.317,230.729,251.199,216.972,248.274,205.531z"/>
	</g>
	<g>
		
			<linearGradient id="SVGID_3_" gradientUnits="userSpaceOnUse" x1="-273.6699" y1="609.7207" x2="-272.4661" y2="609.7207" gradientTransform="matrix(3.3903 65.9672 65.9672 -3.3903 -39165.8125 20328.3125)">
			<stop  offset="0" style="stop-color:#ED2224"/>
			<stop  offset="1" style="stop-color:#CC2027"/>
		</linearGradient>
		<path fill="url(#SVGID_3_)" d="M166.663,204.078c20.465,20.427,20.502,53.572,0.075,74.039
			c-20.424,20.468-53.577,20.503-74.039,0.076c-20.471-20.426-20.505-53.572-0.08-74.04
			C113.046,183.686,146.195,183.651,166.663,204.078z"/>
		<path fill="#010101" d="M166.663,204.078l-3.406,3.405c6.127,6.117,10.221,13.452,12.322,21.238
			c2.136,7.934,2.184,16.323,0.143,24.28c-2.041,7.953-6.16,15.471-12.395,21.717c-6.113,6.125-13.448,10.221-21.23,12.318
			c-7.934,2.135-16.331,2.187-24.285,0.143c-7.956-2.041-15.464-6.158-21.716-12.393c-6.128-6.116-10.216-13.453-12.317-21.233
			c-2.137-7.937-2.19-16.33-0.148-24.283c2.042-7.957,6.16-15.468,12.396-21.716c6.112-6.128,13.448-10.22,21.233-12.321
			c7.934-2.136,16.325-2.183,24.281-0.145c7.959,2.05,15.472,6.166,21.716,12.395L166.663,204.078l3.398-3.411
			c-7.489-7.468-16.557-12.448-26.126-14.903c-9.565-2.453-19.63-2.396-29.179,0.174c-9.36,2.521-18.22,7.472-25.543,14.812
			c-7.468,7.486-12.452,16.562-14.903,26.128c-2.455,9.565-2.398,19.633,0.175,29.184c2.511,9.354,7.467,18.214,14.809,25.54
			c7.486,7.474,16.557,12.455,26.125,14.906c9.565,2.455,19.632,2.401,29.184-0.175c9.354-2.518,18.216-7.468,25.537-14.812
			c7.476-7.485,12.459-16.561,14.911-26.131c2.448-9.564,2.396-19.631-0.173-29.173c-2.523-9.36-7.47-18.221-14.815-25.551
			L166.663,204.078z"/>
		<path fill="#FFFFFF" d="M127.601,202.103c3.791,0.965-10.765,4.448-22.374,16.079c-11.604,11.628-14.758,24.48-15.574,20.112
			c-1.678-8.935,1.547-19.319,9.341-27.12C107.221,202.922,118.347,199.76,127.601,202.103z"/>
		<path fill="#8F191C" d="M171.275,236.905c-1.199-4.684-5.469,13.328-19.822,27.705c-14.348,14.382-30.238,18.306-24.828,19.312
			c11.05,2.047,23.877-1.968,33.509-11.619C170.312,262.103,174.192,248.349,171.275,236.905z"/>
	</g>
	<g>
		<path fill="#56B947" d="M202.939,45.836c0,0-24.4,46.741,37.316,76.497c29.864,14.396,80.866,11.341,83.618,11.163
			c-9.659-12.007-38.959-46.748-66.961-62.676c-20.8-11.831-41.178-20.233-53.95-24.992l-0.01,0.005L202.939,45.836z"/>
		<path fill="#93C83E" d="M202.963,45.828c12.772,4.759,33.15,13.162,53.95,24.992c28.002,15.928,57.302,50.669,66.961,62.676
			l0.128-0.01c0,0-23.78-68.646-56.064-85.635C234.977,30.49,203.869,45.382,202.963,45.828z"/>
	</g>
	<path fill="#010101" d="M202.939,45.836l1.427,4.599l0.017-0.004l0.222-0.067l0.226-0.099l0.127-0.057l0.128-0.058
		c0.075-0.035,3.584-1.736,9.322-3.279c5.624-1.514,13.396-2.892,22.259-2.542c8.874,0.357,18.829,2.409,29.026,7.78
		c3.553,1.87,7.135,4.534,10.635,7.812c6.128,5.732,11.981,13.327,17.221,21.477c7.872,12.236,14.384,25.708,18.899,36.081
		c2.254,5.191,4.017,9.606,5.204,12.718c0.592,1.55,1.048,2.779,1.354,3.61c0.15,0.416,0.26,0.733,0.338,0.943
		c0.04,0.109,0.067,0.188,0.082,0.239l0.026,0.063l4.55-1.568l-0.442-4.797l-0.128,0.012l0.442,4.794l-0.308-4.807
		c-1.248,0.082-14.518,0.878-31.046-0.111c-8.263-0.498-17.332-1.447-26.079-3.133c-8.75-1.674-17.178-4.108-24.101-7.446
		c-12.514-6.036-21.133-12.68-27.032-19.3c-5.896-6.628-9.119-13.225-10.799-19.432c-2.301-8.537-1.614-16.405-0.326-22.16
		c0.638-2.869,1.43-5.199,2.042-6.775c0.305-0.788,0.565-1.392,0.748-1.774c0.085-0.197,0.151-0.335,0.196-0.419l0.038-0.083
		l0.009-0.005l-2.345-1.201l2.334,1.215l0.011-0.015l-2.345-1.201l2.334,1.215L202.939,45.836l1.427,4.599L202.939,45.836
		l-4.268-2.228c-0.136,0.268-2.357,4.546-3.888,11.4c-1.529,6.841-2.383,16.312,0.431,26.764c2.036,7.58,6.029,15.624,12.905,23.337
		c6.878,7.713,16.598,15.084,30.038,21.562c8.016,3.854,17.167,6.442,26.462,8.233c13.947,2.676,28.249,3.547,39.374,3.749
		c11.122,0.199,19.057-0.278,20.194-0.354l0.063-0.002l0.189-0.017l6.12-0.562l-2.012-5.81c-0.052-0.133-6.046-17.457-16.197-37.083
		c-5.081-9.811-11.196-20.204-18.212-29.353c-3.508-4.576-7.252-8.844-11.232-12.576c-3.983-3.724-8.209-6.922-12.728-9.303
		c-11.604-6.116-23.055-8.487-33.133-8.881c-10.08-0.402-18.794,1.154-25.145,2.865c-6.5,1.751-10.512,3.663-11.059,3.927
		l2.118,4.325l-1.862-4.439l-0.019,0.007l1.871,4.437l-1.429-4.596l-0.011,0.003l-1.918,0.595l-0.924,1.773L202.939,45.836z"/>
</g>
</svg>
