<?xml version="1.0" encoding="utf-8"?>
<!-- Generator: Adobe Illustrator 15.1.0, SVG Export Plug-In . SVG Version: 6.00 Build 0)  -->
<!DOCTYPE svg PUBLIC "-//W3C//DTD SVG 1.1//EN" "http://www.w3.org/Graphics/SVG/1.1/DTD/svg11.dtd">
<svg version="1.1" id="Layer_1" xmlns="http://www.w3.org/2000/svg" xmlns:xlink="http://www.w3.org/1999/xlink" x="0px" y="0px"
	 width="320px" height="320px" viewBox="0 0 320 320" enable-background="new 0 0 320 320" xml:space="preserve">
<g>
	
		<linearGradient id="SVGID_1_" gradientUnits="userSpaceOnUse" x1="-261.5723" y1="23.7969" x2="-161.936" y2="23.7969" gradientTransform="matrix(-0.8521 -0.5234 -0.5234 0.8521 -5.6383 104.3474)">
		<stop  offset="0" style="stop-color:#74BF44"/>
		<stop  offset="1" style="stop-color:#007340"/>
	</linearGradient>
	<path fill="url(#SVGID_1_)" d="M157.091,312.13h16.621c-0.041-0.05-17.173-22.329-17.173-61.224
		c0-52.485,20.269-86.315,20.297-86.443l-25.554-6.185c-0.106,0.508-2.73,12.699-5.182,30.301
		c-3.313,23.7-4.663,44.816-4.035,62.787C143.591,294.81,155.706,310.491,157.091,312.13L157.091,312.13z"/>
	
		<radialGradient id="SVGID_2_" cx="60.0635" cy="65.0068" r="56.2188" gradientTransform="matrix(2.6677 0 0 2.5271 4.880428e-004 -15.5474)" gradientUnits="userSpaceOnUse">
		<stop  offset="0" style="stop-color:#007340"/>
		<stop  offset="1" style="stop-color:#74BF44"/>
	</radialGradient>
	<path fill="url(#SVGID_2_)" d="M234.532,151.724c-18.658-0.75-44.976,6.792-49.696,2.764c-2.206-1.885-3.04-3.87-3.024-5.755l0,0
		c-0.008-1.88,0.813-3.875,3.024-5.765c4.721-4.023,31.046,3.524,49.702,2.764c27.096-1.096,54.197-5.607,62.07-13.06
		c21.823-20.672,21.654-61.658-32.635-82.218c-21.709-51.427-64.968-51.588-86.799-30.915c-7.86,7.458-12.628,33.131-13.789,58.807
		c-0.79,17.672,7.175,42.605,2.92,47.077c-1.985,2.095-4.085,2.87-6.078,2.865c-1.993,0.005-4.085-0.77-6.078-2.865
		c-4.254-4.479,3.709-29.405,2.917-47.077c-1.159-25.676-5.921-51.349-13.794-58.807c-21.815-20.673-65.082-20.52-86.791,30.91
		v0.004l0,0C2.194,71.021,2.037,112,23.848,132.671c7.873,7.453,34.982,11.964,62.076,13.06c18.658,0.76,44.976-6.787,49.696-2.764
		c2.212,1.895,3.04,3.875,3.024,5.765h0.008c0.008,1.88-0.813,3.875-3.032,5.755c-4.721,4.037-31.038-3.515-49.696-2.764
		c-27.101,1.101-54.203,5.611-62.076,13.064c-21.811,20.676-21.654,61.658,32.635,82.22c21.709,51.431,64.976,51.584,86.799,30.918
		c7.865-7.458,12.635-33.13,13.794-58.805c0.792-17.676-7.18-42.61-2.925-47.087c1.993-2.093,4.084-2.862,6.078-2.857
		c1.993-0.005,4.084,0.765,6.078,2.857c4.255,4.486-3.704,29.411-2.912,47.087c1.159,25.665,5.921,51.347,13.789,58.805
		c21.823,20.666,65.082,20.518,86.791-30.908v-0.01c54.289-20.572,54.453-61.544,32.635-82.22
		C288.735,157.335,261.626,152.824,234.532,151.724z"/>
	
		<linearGradient id="SVGID_3_" gradientUnits="userSpaceOnUse" x1="207.9502" y1="297.5557" x2="277.3065" y2="268.3521" gradientTransform="matrix(0.7071 -0.7071 0.7071 0.7071 -251.0856 39.1543)">
		<stop  offset="0" style="stop-color:#007340"/>
		<stop  offset="1" style="stop-color:#74BF44"/>
	</linearGradient>
	<path fill="url(#SVGID_3_)" d="M79.268,24.82c-7.204,6.824-13.294,16.048-18.093,27.416l-0.805,1.907l94.804,89.802l0.008-11.91
		c-1.561-0.676-3.202-1.747-4.778-3.414c-3.744-3.921-2.884-10.832-0.734-24.844c1.258-8.248,2.686-17.605,2.347-25.231
		c-1.217-27.026-6.292-49.908-12.312-55.619C125.184,9.176,99.762,5.413,79.268,24.82z"/>
	<linearGradient id="SVGID_4_" gradientUnits="userSpaceOnUse" x1="165.2871" y1="198.4199" x2="305.1738" y2="198.4199">
		<stop  offset="0" style="stop-color:#007340"/>
		<stop  offset="1" style="stop-color:#74BF44"/>
	</linearGradient>
	<path fill="url(#SVGID_4_)" d="M291.041,225.429c-7.208,6.821-16.946,12.597-28.948,17.132l-2.006,0.76l-94.8-89.795l12.567-0.005
		c0.706,1.471,1.845,3.025,3.595,4.526c4.15,3.539,11.442,2.715,26.242,0.696c8.706-1.199,18.572-2.552,26.627-2.23
		c28.532,1.16,52.68,5.958,58.716,11.668C307.55,181.93,311.528,206.017,291.041,225.429z"/>
	
		<linearGradient id="SVGID_5_" gradientUnits="userSpaceOnUse" x1="-37.8413" y1="543.3457" x2="31.5089" y2="514.1447" gradientTransform="matrix(0.7071 0.7071 0.7071 -0.7071 -251.0846 605.9102)">
		<stop  offset="0" style="stop-color:#007340"/>
		<stop  offset="1" style="stop-color:#74BF44"/>
	</linearGradient>
	<path fill="url(#SVGID_5_)" d="M79.268,272.644c-7.204-6.821-13.294-16.046-18.093-27.423l-0.805-1.9l94.804-89.795v11.895
		c-1.547,0.677-3.199,1.743-4.77,3.416c-3.744,3.929-2.884,10.838-0.734,24.847c1.258,8.253,2.686,17.604,2.347,25.236
		c-1.217,27.032-6.292,49.895-12.312,55.615C125.184,288.275,99.762,292.062,79.268,272.644z"/>
	<linearGradient id="SVGID_6_" gradientUnits="userSpaceOnUse" x1="203.3389" y1="97.2783" x2="294.6896" y2="114.5287">
		<stop  offset="0" style="stop-color:#007340"/>
		<stop  offset="1" style="stop-color:#74BF44"/>
	</linearGradient>
	<path fill="url(#SVGID_6_)" d="M291.041,72.038c-7.208-6.821-16.946-12.598-28.948-17.137l-2.006-0.758l-94.8,89.802h12.567
		c0.706-1.481,1.837-3.04,3.595-4.516c4.15-3.549,11.442-2.734,26.242-0.706c8.698,1.194,18.572,2.551,26.627,2.23
		c28.537-1.16,52.68-5.957,58.716-11.669C307.55,115.526,311.536,91.452,291.041,72.038z"/>
</g>
</svg>
