<?xml version="1.0" encoding="utf-8"?>
<!-- Generator: Adobe Illustrator 15.1.0, SVG Export Plug-In . SVG Version: 6.00 Build 0)  -->
<!DOCTYPE svg PUBLIC "-//W3C//DTD SVG 1.1//EN" "http://www.w3.org/Graphics/SVG/1.1/DTD/svg11.dtd">
<svg version="1.1" id="Layer_1" xmlns="http://www.w3.org/2000/svg" xmlns:xlink="http://www.w3.org/1999/xlink" x="0px" y="0px"
	 width="320px" height="320px" viewBox="0 0 320 320" enable-background="new 0 0 320 320" xml:space="preserve">
<g>
	<g>
		<linearGradient id="SVGID_1_" gradientUnits="userSpaceOnUse" x1="80.3999" y1="138.2256" x2="256.7332" y2="252.8896">
			<stop  offset="0" style="stop-color:#FFF100"/>
			<stop  offset="1" style="stop-color:#FCB415"/>
		</linearGradient>
		<ellipse fill="url(#SVGID_1_)" cx="160.119" cy="190.064" rx="150.916" ry="47.716"/>
		<linearGradient id="SVGID_2_" gradientUnits="userSpaceOnUse" x1="11.3828" y1="209.584" x2="310.7147" y2="209.584">
			<stop  offset="0" style="stop-color:#FFF100"/>
			<stop  offset="0.2395" style="stop-color:#FFED01"/>
			<stop  offset="0.4841" style="stop-color:#FEE106"/>
			<stop  offset="0.7301" style="stop-color:#FDCC0D"/>
			<stop  offset="0.9455" style="stop-color:#FCB415"/>
			<stop  offset="1" style="stop-color:#FFD700"/>
		</linearGradient>
		<path fill="url(#SVGID_2_)" d="M311.034,190.064c0-26.353-67.566-47.717-150.916-47.717c-83.346,0-150.916,21.364-150.916,47.717
			c0,6.958,0,32.083,0,39.041c0,26.352,67.57,47.715,150.916,47.715c83.349,0,150.916-21.363,150.916-47.715
			C311.034,222.147,311.034,197.022,311.034,190.064z"/>
		<ellipse fill="#F9A31A" cx="160.119" cy="190.064" rx="150.916" ry="47.716"/>
	</g>
	<g>
		<linearGradient id="SVGID_3_" gradientUnits="userSpaceOnUse" x1="80.2808" y1="94.8472" x2="256.6127" y2="209.5103">
			<stop  offset="0" style="stop-color:#FFF100"/>
			<stop  offset="1" style="stop-color:#FCB415"/>
		</linearGradient>
		<path fill="url(#SVGID_3_)" d="M310.913,146.686c0,26.352-67.561,47.717-150.914,47.717c-83.349,0-150.916-21.365-150.916-47.717
			C9.084,120.333,76.651,98.97,160,98.97C243.353,98.97,310.913,120.333,310.913,146.686z"/>
		<linearGradient id="SVGID_4_" gradientUnits="userSpaceOnUse" x1="11.2637" y1="166.209" x2="310.5936" y2="166.209">
			<stop  offset="0" style="stop-color:#FFF100"/>
			<stop  offset="0.2395" style="stop-color:#FFED01"/>
			<stop  offset="0.4841" style="stop-color:#FEE106"/>
			<stop  offset="0.7301" style="stop-color:#FDCC0D"/>
			<stop  offset="0.9455" style="stop-color:#FCB415"/>
			<stop  offset="1" style="stop-color:#FFD700"/>
		</linearGradient>
		<path fill="url(#SVGID_4_)" d="M310.913,146.686c0-26.353-67.561-47.716-150.914-47.716c-83.349,0-150.916,21.363-150.916,47.716
			c0,6.958,0,32.083,0,39.044c0,26.354,67.567,47.717,150.916,47.717c83.353,0,150.914-21.363,150.914-47.717
			C310.913,178.77,310.913,153.644,310.913,146.686z"/>
		<path fill="#F9A31A" d="M310.913,146.686c0,26.352-67.561,47.717-150.914,47.717c-83.349,0-150.916-21.365-150.916-47.717
			C9.084,120.333,76.651,98.97,160,98.97C243.353,98.97,310.913,120.333,310.913,146.686z"/>
	</g>
	<g>
		<linearGradient id="SVGID_5_" gradientUnits="userSpaceOnUse" x1="80.2808" y1="51.4731" x2="256.6127" y2="166.1363">
			<stop  offset="0" style="stop-color:#FFF100"/>
			<stop  offset="1" style="stop-color:#FCB415"/>
		</linearGradient>
		<path fill="url(#SVGID_5_)" d="M310.913,103.312c0,26.349-67.561,47.717-150.914,47.717c-83.349,0-150.916-21.368-150.916-47.717
			c0-26.353,67.567-47.716,150.916-47.716C243.353,55.596,310.913,76.959,310.913,103.312z"/>
		<linearGradient id="SVGID_6_" gradientUnits="userSpaceOnUse" x1="11.2637" y1="122.8325" x2="310.5936" y2="122.8325">
			<stop  offset="0" style="stop-color:#FFF100"/>
			<stop  offset="0.2395" style="stop-color:#FFED01"/>
			<stop  offset="0.4841" style="stop-color:#FEE106"/>
			<stop  offset="0.7301" style="stop-color:#FDCC0D"/>
			<stop  offset="0.9455" style="stop-color:#FCB415"/>
			<stop  offset="1" style="stop-color:#FFD700"/>
		</linearGradient>
		<path fill="url(#SVGID_6_)" d="M310.913,103.312c0-26.353-67.561-47.716-150.914-47.716c-83.349,0-150.916,21.364-150.916,47.716
			c0,6.958,0,32.083,0,39.04c0,26.353,67.567,47.717,150.916,47.717c83.353,0,150.914-21.364,150.914-47.717
			C310.913,135.396,310.913,110.27,310.913,103.312z"/>
		<linearGradient id="SVGID_7_" gradientUnits="userSpaceOnUse" x1="80.2808" y1="51.4731" x2="256.6127" y2="166.1363">
			<stop  offset="0" style="stop-color:#FFF100"/>
			<stop  offset="1" style="stop-color:#FCB415"/>
		</linearGradient>
		<path fill="url(#SVGID_7_)" d="M310.913,103.312c0,26.349-67.561,47.717-150.914,47.717c-83.349,0-150.916-21.368-150.916-47.717
			c0-26.353,67.567-47.716,150.916-47.716C243.353,55.596,310.913,76.959,310.913,103.312z"/>
		<linearGradient id="SVGID_8_" gradientUnits="userSpaceOnUse" x1="115.5332" y1="86.1909" x2="321.6624" y2="162.057">
			<stop  offset="0" style="stop-color:#FFF100"/>
			<stop  offset="1" style="stop-color:#FCB415"/>
		</linearGradient>
		<path fill="url(#SVGID_8_)" d="M227.218,60.59c-90.177,8.475-157.709,41.171-159.513,80.46
			c25.519,6.245,57.522,9.979,92.294,9.979c83.353,0,150.914-21.368,150.914-47.717C310.913,84.596,276.821,68.405,227.218,60.59z"
			/>
		<linearGradient id="SVGID_9_" gradientUnits="userSpaceOnUse" x1="0.7588" y1="92.4497" x2="298.3622" y2="112.7468">
			<stop  offset="0" style="stop-color:#FCB415"/>
			<stop  offset="1" style="stop-color:#FFF100"/>
		</linearGradient>
		<path fill="url(#SVGID_9_)" d="M160,138.015c-90.98,0-137.903-24.325-137.903-34.703c0-10.377,46.922-34.706,137.903-34.706
			c90.978,0,137.9,24.329,137.9,34.706C297.899,113.69,250.978,138.015,160,138.015L160,138.015z"/>
		<linearGradient id="SVGID_10_" gradientUnits="userSpaceOnUse" x1="-53.4243" y1="92.1646" x2="289.8347" y2="113.3132">
			<stop  offset="0" style="stop-color:#FFF100"/>
			<stop  offset="1" style="stop-color:#FCB415"/>
		</linearGradient>
		<path fill="url(#SVGID_10_)" d="M160,72.612c-85.564,0-132.131,21.504-137.38,32.701c5.25,11.197,51.816,32.702,137.38,32.702
			c85.564,0,132.13-21.504,137.378-32.702C292.13,94.116,245.563,72.612,160,72.612z"/>
		<linearGradient id="SVGID_11_" gradientUnits="userSpaceOnUse" x1="96.939" y1="118.4502" x2="305.1673" y2="93.2351">
			<stop  offset="0" style="stop-color:#FFF100"/>
			<stop  offset="1" style="stop-color:#FCB415"/>
		</linearGradient>
		<path fill="url(#SVGID_11_)" d="M84.78,128.925c19.52,3.832,44.367,6.582,75.22,6.582c85.753,0,125.738-21.12,131.042-28.194
			c-4.766-6.363-37.688-24.02-106.574-27.534C127.101,89.37,87.6,107.684,84.78,128.925z"/>
		<linearGradient id="SVGID_12_" gradientUnits="userSpaceOnUse" x1="105.2671" y1="71.644" x2="221.8941" y2="147.4829">
			<stop  offset="0" style="stop-color:#FCB415"/>
			<stop  offset="1" style="stop-color:#FFF100"/>
		</linearGradient>
		<path fill="url(#SVGID_12_)" d="M123.25,80.6l51.624,12.448l65.707-2.211l-26.594,14.837l35.848,15.76l-69.99-2.211
			l-46.707,13.713l-11.234-17.869l-66.984-7.365l62.587-11.52L123.25,80.6z"/>
		<linearGradient id="SVGID_13_" gradientUnits="userSpaceOnUse" x1="112.2974" y1="77.0879" x2="215.805" y2="144.3957">
			<stop  offset="0" style="stop-color:#F6921E"/>
			<stop  offset="0.4172" style="stop-color:#EE7020"/>
			<stop  offset="1" style="stop-color:#D71921"/>
		</linearGradient>
		<polygon fill="url(#SVGID_13_)" points="174.874,96.777 123.25,84.329 117.506,99.911 67.609,109.098 121.904,115.067 
			133.138,132.936 179.845,119.223 240.688,121.148 213.987,109.402 213.987,105.674 233.464,94.809 		"/>
		<linearGradient id="SVGID_14_" gradientUnits="userSpaceOnUse" x1="137.4072" y1="84.687" x2="221.1082" y2="139.1151">
			<stop  offset="0" style="stop-color:#F9A719"/>
			<stop  offset="1" style="stop-color:#D71921"/>
		</linearGradient>
		<path fill="url(#SVGID_14_)" d="M213.987,105.674l19.477-10.865l-58.59,1.968l-25.711-6.203
			c-21.516,6.053-38.521,13.583-49.246,22.076l21.987,2.418l11.234,17.869l46.707-13.713l60.844,1.925l-26.701-11.746V105.674z"/>
		<linearGradient id="SVGID_15_" gradientUnits="userSpaceOnUse" x1="190.251" y1="82.4424" x2="227.0206" y2="106.3526">
			<stop  offset="0" style="stop-color:#FCB415"/>
			<stop  offset="1" style="stop-color:#FFF100"/>
		</linearGradient>
		<polygon fill="url(#SVGID_15_)" points="174.874,93.047 174.874,96.777 233.464,94.809 240.581,90.836 		"/>
	</g>
</g>
</svg>
