<?xml version="1.0" encoding="utf-8"?>
<!-- Generator: Adobe Illustrator 15.1.0, SVG Export Plug-In . SVG Version: 6.00 Build 0)  -->
<!DOCTYPE svg PUBLIC "-//W3C//DTD SVG 1.1//EN" "http://www.w3.org/Graphics/SVG/1.1/DTD/svg11.dtd">
<svg version="1.1" id="Layer_1" xmlns="http://www.w3.org/2000/svg" xmlns:xlink="http://www.w3.org/1999/xlink" x="0px" y="0px"
	 width="320px" height="320px" viewBox="0 0 320 320" enable-background="new 0 0 320 320" xml:space="preserve">
<g>
	<linearGradient id="SVGID_1_" gradientUnits="userSpaceOnUse" x1="304.1436" y1="173.5049" x2="16.6045" y2="173.5049">
		<stop  offset="0" style="stop-color:#FCB415"/>
		<stop  offset="1" style="stop-color:#FFF100"/>
	</linearGradient>
	<path fill="url(#SVGID_1_)" d="M244.167,171.155L235.173,67.15l-46.899,88.649L160.374,44.925l-27.9,110.875L85.575,67.15
		L76.58,171.155L16.604,90.823c0,0,4.87,181.43,4.87,195.32c0,8.893,60.124,15.942,138.9,15.942
		c78.776,0,138.899-7.05,138.899-15.942c0-13.89,4.87-195.32,4.87-195.32L244.167,171.155z"/>
	<linearGradient id="SVGID_2_" gradientUnits="userSpaceOnUse" x1="288.7754" y1="284.6416" x2="31.9727" y2="284.6416">
		<stop  offset="0" style="stop-color:#F9A719"/>
		<stop  offset="1" style="stop-color:#D71921"/>
	</linearGradient>
	<path fill="url(#SVGID_2_)" d="M160.374,273.462c-71.165,0.157-128.402,5.798-128.402,10.306c0,4.513,57.237,11.853,128.402,12.053
		c71.165-0.2,128.401-7.54,128.401-12.053C288.775,279.26,231.539,273.619,160.374,273.462z"/>
	<linearGradient id="SVGID_3_" gradientUnits="userSpaceOnUse" x1="131.2603" y1="220.7168" x2="189.4873" y2="220.7168">
		<stop  offset="0" style="stop-color:#FCB415"/>
		<stop  offset="1" style="stop-color:#FFF100"/>
	</linearGradient>
	<path fill="url(#SVGID_3_)" d="M189.487,220.719c0,24.586-13.031,44.522-29.113,44.522c-16.083,0-29.114-19.937-29.114-44.522
		s13.031-44.526,29.114-44.526C176.456,176.192,189.487,196.133,189.487,220.719z"/>
	<radialGradient id="SVGID_4_" cx="160.374" cy="220.7188" r="30.3235" gradientUnits="userSpaceOnUse">
		<stop  offset="0" style="stop-color:#F16522"/>
		<stop  offset="0.2822" style="stop-color:#E41B23"/>
		<stop  offset="1" style="stop-color:#B41218"/>
	</radialGradient>
	<path fill="url(#SVGID_4_)" d="M183.844,220.719c0,19.821-10.511,35.892-23.47,35.892c-12.958,0-23.47-16.07-23.47-35.892
		s10.513-35.892,23.47-35.892C173.333,184.827,183.844,200.897,183.844,220.719z"/>
	
		<linearGradient id="SVGID_5_" gradientUnits="userSpaceOnUse" x1="60.4595" y1="241.041" x2="98.165" y2="241.041" gradientTransform="matrix(1 0 0 1.0439 0 -17.6187)">
		<stop  offset="0" style="stop-color:#FCB415"/>
		<stop  offset="1" style="stop-color:#FFF100"/>
	</linearGradient>
	<path fill="url(#SVGID_5_)" d="M98.165,234.005c0,17.632-8.439,31.922-18.853,31.922c-10.416,0-18.853-14.29-18.853-31.922
		s8.438-31.922,18.853-31.922C89.726,202.083,98.165,216.373,98.165,234.005z"/>
	<radialGradient id="SVGID_6_" cx="79.311" cy="234.0068" r="20.5971" gradientUnits="userSpaceOnUse">
		<stop  offset="0" style="stop-color:#F16522"/>
		<stop  offset="0.2822" style="stop-color:#E41B23"/>
		<stop  offset="1" style="stop-color:#B41218"/>
	</radialGradient>
	<path fill="url(#SVGID_6_)" d="M94.6,234.005c0,13.694-6.843,24.796-15.287,24.796c-8.447,0-15.29-11.102-15.29-24.796
		c0-13.695,6.843-24.792,15.29-24.792C87.757,209.213,94.6,220.31,94.6,234.005z"/>
	<linearGradient id="SVGID_7_" gradientUnits="userSpaceOnUse" x1="20.2979" y1="248.7754" x2="31.9722" y2="248.7754">
		<stop  offset="0" style="stop-color:#FCB415"/>
		<stop  offset="1" style="stop-color:#FFF100"/>
	</linearGradient>
	<path fill="url(#SVGID_7_)" d="M31.972,248.78c0-13.638-4.274-24.691-9.556-24.691c-0.728,0-1.433,0.257-2.118,0.657
		c0.426,19.979,0.776,37.21,0.98,48.421c0.383,0.114,0.75,0.295,1.138,0.295C27.698,273.462,31.972,262.408,31.972,248.78z"/>
	<radialGradient id="SVGID_8_" cx="20.3242" cy="248.5059" r="15.1955" gradientUnits="userSpaceOnUse">
		<stop  offset="0" style="stop-color:#F16522"/>
		<stop  offset="0.2822" style="stop-color:#E41B23"/>
		<stop  offset="1" style="stop-color:#B41218"/>
	</radialGradient>
	<path fill="url(#SVGID_8_)" d="M30.344,248.509c0,10.496-5.131,19.008-8.316,19.008c-6.481,0-11.725-8.512-11.725-19.008
		c0-10.501,5.244-19.013,11.725-19.013C26.005,229.496,30.344,238.008,30.344,248.509z"/>
	
		<linearGradient id="SVGID_9_" gradientUnits="userSpaceOnUse" x1="-288.5215" y1="241.041" x2="-250.8135" y2="241.041" gradientTransform="matrix(-1 0 0 1.0439 -28.2314 -17.6187)">
		<stop  offset="0" style="stop-color:#FCB415"/>
		<stop  offset="1" style="stop-color:#FFF100"/>
	</linearGradient>
	<ellipse fill="url(#SVGID_9_)" cx="241.436" cy="234.005" rx="18.854" ry="31.922"/>
	
		<radialGradient id="SVGID_10_" cx="-269.6675" cy="234.0068" r="20.5971" gradientTransform="matrix(-1 0 0 1 -28.2314 0)" gradientUnits="userSpaceOnUse">
		<stop  offset="0" style="stop-color:#F16522"/>
		<stop  offset="0.2822" style="stop-color:#E41B23"/>
		<stop  offset="1" style="stop-color:#B41218"/>
	</radialGradient>
	<path fill="url(#SVGID_10_)" d="M226.147,234.005c0,13.694,6.843,24.796,15.29,24.796c8.444,0,15.287-11.102,15.287-24.796
		c0-13.695-6.843-24.792-15.287-24.792C232.99,209.213,226.147,220.31,226.147,234.005z"/>
	
		<linearGradient id="SVGID_11_" gradientUnits="userSpaceOnUse" x1="-328.6807" y1="248.7754" x2="-317.0068" y2="248.7754" gradientTransform="matrix(-1 0 0 1 -28.2314 0)">
		<stop  offset="0" style="stop-color:#FCB415"/>
		<stop  offset="1" style="stop-color:#FFF100"/>
	</linearGradient>
	<path fill="url(#SVGID_11_)" d="M288.775,248.78c0-13.638,4.274-24.691,9.556-24.691c0.731,0,1.433,0.257,2.118,0.657
		c-0.426,19.979-0.775,37.21-0.98,48.421c-0.381,0.114-0.749,0.295-1.138,0.295C293.05,273.462,288.775,262.408,288.775,248.78z"/>
	
		<radialGradient id="SVGID_12_" cx="-328.6548" cy="248.5059" r="15.1955" gradientTransform="matrix(-1 0 0 1 -28.2314 0)" gradientUnits="userSpaceOnUse">
		<stop  offset="0" style="stop-color:#F16522"/>
		<stop  offset="0.2822" style="stop-color:#E41B23"/>
		<stop  offset="1" style="stop-color:#B41218"/>
	</radialGradient>
	<path fill="url(#SVGID_12_)" d="M290.403,248.509c0,10.496,5.134,19.008,8.316,19.008c6.483,0,11.724-8.512,11.724-19.008
		c0-10.501-5.24-19.013-11.724-19.013C294.742,229.496,290.403,238.008,290.403,248.509z"/>
</g>
</svg>
