<?xml version="1.0" encoding="utf-8"?>
<!-- Generator: Adobe Illustrator 15.1.0, SVG Export Plug-In . SVG Version: 6.00 Build 0)  -->
<!DOCTYPE svg PUBLIC "-//W3C//DTD SVG 1.1//EN" "http://www.w3.org/Graphics/SVG/1.1/DTD/svg11.dtd">
<svg version="1.1" id="Layer_1" xmlns="http://www.w3.org/2000/svg" xmlns:xlink="http://www.w3.org/1999/xlink" x="0px" y="0px"
	 width="350px" height="350px" viewBox="0 0 350 350" enable-background="new 0 0 350 350" xml:space="preserve">
<g>
	<path fill="#010101" d="M336.913,195.229c-0.017-2.677-0.219-16.549-2.646-33.125c-1.551-10.54-3.689-19.937-6.357-27.931
		c-1.653-4.969-3.476-9.308-5.566-13.263c-2.398-4.549-5.025-8.319-8.032-11.527c-7.589-8.085-16.781-14.021-27.321-17.648
		c-6.347-2.188-13.026-3.489-19.846-3.865c-0.003,0-0.76-0.005-1.747-0.012c-2.282-4.583-5.162-8.681-8.509-12.235
		c-1.672-5.142-3.876-10.081-6.626-14.709c-5.697-9.585-13.384-17.374-22.846-23.159c-3.727-2.273-7.95-4.08-12.912-5.52
		c-4.255-1.227-8.872-2.126-14.123-2.752c-8.373-0.985-18.01-1.166-28.643-0.535h-0.003c-16.517,0.984-30.266,3.612-32.855,4.128
		l-11.536,2.699l5.095,10.238l0.118,0.23c0.108,0.214,0.656,1.278,1.556,2.931c-0.6,0.265-1.199,0.531-1.791,0.822
		c-13.739,6.707-23.405,18.86-27.046,33.348c-6.045,0.591-11.977,2.218-17.468,4.902c-17.93,8.764-28.668,26.926-28.668,45.985
		c0,2.576,0.228,5.168,0.629,7.757c-0.123,0.058-0.263,0.088-0.385,0.147c-12.27,5.995-21.467,16.41-25.903,29.321
		c-1.868,5.442-2.796,11.049-2.796,16.639c0,7.671,1.75,15.304,5.218,22.399c2.011,4.116,4.563,7.835,7.525,11.211
		c-7.183,9.099-11.019,20.261-11.019,31.626c0,7.597,1.692,15.269,5.2,22.445c5.991,12.266,16.4,21.463,29.311,25.9
		c12.914,4.438,26.782,3.583,39.05-2.409c2.712-1.325,5.268-2.898,7.684-4.661c14.994,10.286,34.701,12.012,51.388,3.863
		c6.149-3.004,11.447-7.24,15.875-12.296c14.975,10.424,34.947,12.301,51.762,4.086c10.107-4.938,18.038-12.855,23.021-22.679
		c10.125,1.492,20.46-0.056,29.803-4.622c12.264-5.989,21.462-16.398,25.898-29.308c1.872-5.445,2.802-11.062,2.802-16.656
		c0-5.982-1.079-11.937-3.191-17.636c0.886,0.317,1.742,0.644,2.635,0.953l11.662,3.673l9.348,2.374l2.119,0.312l0.149-2.078
		L336.913,195.229z"/>
	<g>
		<g>
			
				<linearGradient id="SVGID_1_" gradientUnits="userSpaceOnUse" x1="-261.5796" y1="603.4082" x2="-260.6137" y2="603.4082" gradientTransform="matrix(-18.2969 63.4696 63.4696 18.2969 -42994.9375 5724.25)">
				<stop  offset="0" style="stop-color:#8670B2"/>
				<stop  offset="1" style="stop-color:#3F2D71"/>
			</linearGradient>
			<path fill="url(#SVGID_1_)" d="M119.575,169.621c10.185,20.847,1.536,46-19.31,56.186c-20.85,10.188-46.007,1.54-56.183-19.312
				c-10.188-20.841-1.546-45.996,19.298-56.182C84.229,140.13,109.388,148.772,119.575,169.621z"/>
			<path fill="#010101" d="M119.575,169.621l-3.472,1.694c3.045,6.242,4.231,12.87,3.786,19.329
				c-0.446,6.582-2.603,12.962-6.234,18.459c-3.633,5.506-8.727,10.129-15.09,13.231c-6.244,3.05-12.875,4.236-19.328,3.793
				c-6.578-0.451-12.956-2.611-18.457-6.24c-5.504-3.641-10.123-8.723-13.231-15.083c-3.053-6.242-4.237-12.876-3.792-19.329
				c0.453-6.578,2.607-12.958,6.242-18.455c3.628-5.505,8.718-10.13,15.085-13.234c6.235-3.052,12.87-4.236,19.327-3.792
				c6.576,0.455,12.954,2.609,18.458,6.239c5.503,3.633,10.125,8.722,13.234,15.082L119.575,169.621l3.47-1.703
				c-3.722-7.617-9.304-13.771-15.917-18.135c-6.624-4.368-14.274-6.952-22.185-7.496c-7.76-0.544-15.776,0.901-23.255,4.555
				c-7.626,3.724-13.778,9.305-18.14,15.918c-4.371,6.623-6.953,14.272-7.506,22.182c-0.531,7.756,0.905,15.773,4.567,23.254
				c3.722,7.622,9.302,13.775,15.917,18.139c6.617,4.367,14.269,6.958,22.181,7.502c7.762,0.536,15.775-0.898,23.253-4.555
				c7.626-3.728,13.777-9.306,18.137-15.927c4.372-6.607,6.96-14.266,7.504-22.177c0.537-7.758-0.903-15.774-4.555-23.26
				L119.575,169.621z"/>
			<path fill="#FFFFFF" d="M90.455,157.904c2.626,1.719-9.326,0.56-21.179,6.345c-11.842,5.782-17.588,14.719-17.072,11.183
				c1.058-7.215,6.224-14.247,14.181-18.129C74.789,153.196,84.045,153.708,90.455,157.904z"/>
			<path fill="#102041" d="M114.483,195.733c0.317-3.869-7.633,8.676-22.277,15.829c-14.65,7.155-27.728,5.978-23.893,8.152
				c7.849,4.451,18.631,4.76,28.465-0.047C107.169,214.594,113.711,205.177,114.483,195.733z"/>
		</g>
		<g>
			
				<linearGradient id="SVGID_2_" gradientUnits="userSpaceOnUse" x1="-261.5024" y1="603.1504" x2="-260.5364" y2="603.1504" gradientTransform="matrix(-18.2967 63.4689 63.4689 18.2967 -42915.9688 5788.6875)">
				<stop  offset="0" style="stop-color:#8670B2"/>
				<stop  offset="1" style="stop-color:#3F2D71"/>
			</linearGradient>
			<path fill="url(#SVGID_2_)" d="M180.354,234.105c10.187,20.85,1.545,46.004-19.306,56.187
				c-20.853,10.183-45.996,1.541-56.188-19.306c-10.185-20.848-1.543-46.01,19.309-56.189
				C145.016,204.613,170.169,213.256,180.354,234.105z"/>
			<path fill="#010101" d="M180.354,234.105l-3.466,1.692c3.044,6.242,4.232,12.882,3.789,19.335
				c-0.455,6.579-2.616,12.954-6.241,18.456c-3.636,5.497-8.727,10.121-15.083,13.234c-6.242,3.05-12.88,4.237-19.33,3.79
				c-6.583-0.455-12.96-2.613-18.457-6.247c-5.502-3.624-10.126-8.716-13.235-15.077c-3.05-6.241-4.235-12.878-3.792-19.333
				c0.449-6.575,2.611-12.957,6.245-18.458c3.627-5.498,8.71-10.118,15.083-13.23c6.24-3.051,12.872-4.232,19.322-3.795
				c6.583,0.455,12.957,2.615,18.46,6.242c5.508,3.633,10.127,8.724,13.238,15.083L180.354,234.105l3.474-1.695
				c-3.729-7.63-9.304-13.782-15.921-18.142c-6.62-4.368-14.269-6.954-22.184-7.505c-7.755-0.534-15.771,0.906-23.255,4.562
				c-7.624,3.717-13.774,9.306-18.135,15.917c-4.362,6.616-6.953,14.27-7.502,22.179c-0.533,7.763,0.899,15.776,4.557,23.263
				c3.724,7.621,9.306,13.776,15.925,18.138c6.616,4.365,14.268,6.955,22.176,7.494c7.763,0.539,15.772-0.896,23.252-4.549
				c7.622-3.73,13.776-9.314,18.144-15.924c4.363-6.616,6.954-14.271,7.499-22.181c0.532-7.758-0.901-15.774-4.555-23.255
				L180.354,234.105z"/>
			<path fill="#FFFFFF" d="M151.235,222.394c2.629,1.719-9.328,0.552-21.171,6.341c-11.843,5.784-17.591,14.715-17.078,11.182
				c1.062-7.215,6.232-14.25,14.182-18.13C135.569,217.684,144.832,218.188,151.235,222.394z"/>
			<path fill="#102041" d="M175.269,260.209c0.317-3.862-7.641,8.685-22.279,15.843c-14.645,7.151-27.727,5.973-23.893,8.15
				c7.851,4.447,18.631,4.755,28.462-0.048C167.954,279.076,174.493,269.656,175.269,260.209z"/>
		</g>
		<g>
			
				<linearGradient id="SVGID_3_" gradientUnits="userSpaceOnUse" x1="-261.5879" y1="603.2832" x2="-260.6223" y2="603.2832" gradientTransform="matrix(-18.2969 63.4696 63.4696 18.2969 -42985.4375 5792.25)">
				<stop  offset="0" style="stop-color:#8670B2"/>
				<stop  offset="1" style="stop-color:#3F2D71"/>
			</linearGradient>
			<path fill="url(#SVGID_3_)" d="M121.284,234.906c10.182,20.841,1.541,45.999-19.307,56.183
				c-20.852,10.184-46.007,1.536-56.188-19.308c-10.185-20.848-1.544-46.004,19.304-56.19
				C85.943,205.408,111.096,214.051,121.284,234.906z"/>
			<path fill="#010101" d="M121.284,234.906l-3.476,1.688c3.051,6.245,4.238,12.878,3.797,19.334
				c-0.458,6.578-2.613,12.953-6.247,18.454c-3.627,5.504-8.715,10.13-15.081,13.24c-6.238,3.045-12.876,4.232-19.328,3.784
				c-6.578-0.454-12.958-2.612-18.462-6.24c-5.499-3.629-10.117-8.714-13.23-15.084c-3.05-6.244-4.231-12.876-3.789-19.326
				c0.453-6.58,2.61-12.962,6.236-18.459c3.631-5.504,8.72-10.125,15.083-13.231c6.24-3.056,12.876-4.239,19.333-3.795
				c6.578,0.454,12.953,2.613,18.46,6.239c5.5,3.636,10.12,8.725,13.227,15.084L121.284,234.906l3.472-1.703
				c-3.729-7.624-9.302-13.775-15.922-18.14c-6.617-4.362-14.265-6.952-22.181-7.497c-7.76-0.541-15.778,0.899-23.252,4.555
				c-7.626,3.724-13.781,9.307-18.141,15.923c-4.362,6.611-6.954,14.265-7.502,22.183c-0.539,7.755,0.9,15.768,4.559,23.25
				c3.722,7.625,9.301,13.779,15.917,18.139c6.614,4.366,14.265,6.957,22.184,7.503c7.757,0.535,15.772-0.903,23.245-4.558
				c7.635-3.724,13.786-9.305,18.148-15.922c4.361-6.618,6.952-14.266,7.5-22.178c0.537-7.76-0.903-15.778-4.555-23.258
				L121.284,234.906z"/>
			<path fill="#FFFFFF" d="M92.168,223.187c2.619,1.721-9.331,0.559-21.176,6.346c-11.847,5.783-17.6,14.713-17.077,11.186
				c1.061-7.222,6.23-14.254,14.177-18.134C76.489,218.479,85.757,218.983,92.168,223.187z"/>
			<path fill="#102041" d="M116.197,261.01c0.312-3.866-7.638,8.681-22.283,15.835c-14.645,7.156-27.726,5.98-23.886,8.158
				c7.849,4.443,18.627,4.748,28.461-0.052C108.877,279.873,115.418,270.456,116.197,261.01z"/>
		</g>
		<g>
			<path fill="#010101" d="M307.684,115.613l5.307-4.979c-8.408-8.96-17.962-14.21-26.592-17.18
				c-7.477-2.577-14.288-3.489-19.354-3.768c-2.538-0.135-4.641-0.109-6.184-0.039c-1.55,0.068-2.515,0.172-2.846,0.215
				l-0.019,0.002l-0.04,0.001l0.955,7.219l0.632-7.254l-0.012,0.003l-3.255-0.287l-2.378,2.249
				c-0.253,0.245-2.043,1.963-4.289,5.042c-2.24,3.078-4.945,7.516-6.911,13.212c-1.241,3.589-2.18,7.693-2.473,12.205
				c-0.449,6.772,0.588,14.47,4,22.564c3.402,8.099,9.127,16.57,17.848,25.226c7.407,7.31,16.921,13.104,26.354,17.837
				c9.433,4.713,18.794,8.292,25.813,10.713c6.347,2.189,10.766,3.42,11.553,3.64l0.062,0.016l0.169,0.043l9.078,2.306l-0.01-9.366
				c-0.005-0.22-0.021-15.058-2.627-32.864c-1.311-8.908-3.262-18.563-6.282-27.618c-1.511-4.531-3.293-8.908-5.45-12.99
				c-2.149-4.078-4.685-7.859-7.75-11.132L307.684,115.613l-5.305,4.98c1.942,2.061,3.806,4.765,5.49,7.963
				c2.962,5.587,5.355,12.641,7.146,20.016c2.714,11.068,4.119,22.843,4.814,31.773c0.354,4.47,0.529,8.227,0.62,10.854
				c0.044,1.313,0.067,2.345,0.076,3.036c0.008,0.348,0.012,0.606,0.015,0.782l-0.003,0.185l0.002,0.042l0.001,0.008l7.272-0.014
				l1.795-7.054l-0.097-0.021l-1.795,7.052l1.926-7.02c-0.55-0.149-4.694-1.302-10.656-3.36c-6.597-2.271-15.436-5.661-24.051-9.97
				c-8.619-4.291-17-9.569-22.608-15.156c-5.084-5.041-8.784-9.792-11.438-14.194c-3.978-6.605-5.638-12.391-6.086-17.459
				c-0.438-5.07,0.354-9.492,1.652-13.27c1.366-3.975,3.323-7.198,4.912-9.37c0.789-1.092,1.485-1.915,1.954-2.432
				c0.235-0.259,0.413-0.442,0.515-0.548l0.093-0.096v-0.001l-3.216-3.344l3.191,3.372l0.024-0.028l-3.216-3.344l3.191,3.372
				l-5.003-5.281l-0.632,7.245l0.006,0.002l0.797,0.066l0.803-0.104l-0.038,0.001l-0.011,0.005c0.221-0.027,2.846-0.303,6.818-0.06
				c3.972,0.241,9.304,1.003,15.008,2.97c6.819,2.358,14.142,6.376,20.727,13.378L307.684,115.613z"/>
			<g>
				<path fill="#56B947" d="M258.901,97.086c0,0-30.732,29.071,8.298,67.787c18.895,18.731,58.38,29.753,60.518,30.342
					c-4.189-11.638-17.328-45.654-34.403-65.062c-12.687-14.417-25.946-26.12-34.392-33.068h-0.01L258.901,97.086z"/>
				<path fill="#93C83E" d="M258.922,97.084c8.445,6.948,21.705,18.652,34.392,33.068c17.075,19.409,30.214,53.425,34.403,65.062
					l0.097,0.023c0,0-0.084-58.295-20.13-79.625C287.219,93.82,259.726,96.98,258.922,97.084z"/>
			</g>
			<path fill="#010101" d="M258.901,97.086l-0.119,3.859h0.01l0.188,0.008l0.2-0.015l0.109-0.011l0.11-0.009
				c0.067-0.012,3.175-0.381,7.929-0.049c4.662,0.321,10.921,1.312,17.552,3.894c6.637,2.59,13.653,6.75,19.984,13.496
				c2.21,2.345,4.23,5.301,6.029,8.702c3.146,5.956,5.602,13.247,7.439,20.8c2.772,11.344,4.189,23.264,4.903,32.313
				c0.353,4.53,0.535,8.34,0.62,11.008c0.042,1.331,0.069,2.388,0.081,3.095c0.006,0.36,0.009,0.631,0.012,0.807
				c0.002,0.092,0,0.159,0,0.199l0.003,0.056l3.86,0.001l0.921-3.755l-0.098-0.026l-0.92,3.758l1.021-3.729
				c-0.966-0.267-11.239-3.131-23.52-8.202c-6.139-2.539-12.769-5.633-18.966-9.203c-6.196-3.554-11.955-7.605-16.334-11.947
				c-7.915-7.852-12.712-15.148-15.458-21.714c-2.738-6.567-3.46-12.417-3.11-17.564c0.488-7.078,3.065-12.866,5.548-16.896
				c1.233-2.011,2.448-3.568,3.324-4.604c0.436-0.518,0.787-0.911,1.03-1.153c0.115-0.125,0.199-0.212,0.253-0.265l0.056-0.055
				l0.003-0.002l-1.458-1.521l1.45,1.53l0.008-0.009l-1.458-1.521l1.45,1.53L258.901,97.086l-0.119,3.859L258.901,97.086
				l-2.654-2.811c-0.175,0.167-2.975,2.832-5.931,7.633c-2.954,4.787-6.073,11.749-6.671,20.417
				c-0.441,6.281,0.489,13.428,3.682,21.077c3.202,7.651,8.649,15.784,17.15,24.214c5.074,5.019,11.335,9.376,17.921,13.169
				c9.88,5.678,20.498,10.077,28.887,13.139c8.387,3.06,14.533,4.772,15.413,5.014l0.05,0.014l0.144,0.037l4.794,1.175l-0.007-4.932
				c-0.001-0.115-0.02-14.827-2.59-32.37c-1.287-8.776-3.207-18.253-6.137-27.027c-1.462-4.395-3.186-8.609-5.233-12.481
				c-2.048-3.87-4.416-7.398-7.223-10.385c-7.203-7.674-15.269-12.468-22.808-15.404c-7.541-2.942-14.562-4.037-19.828-4.402
				c-5.386-0.371-8.93,0.028-9.413,0.087l0.475,3.835l-0.252-3.858l-0.014,0.001l0.256,3.856l0.118-3.858h-0.009l-1.614-0.055
				l-1.16,1.104L258.901,97.086z"/>
		</g>
		<g>
			
				<linearGradient id="SVGID_4_" gradientUnits="userSpaceOnUse" x1="-262.4648" y1="603.7422" x2="-261.4988" y2="603.7422" gradientTransform="matrix(-18.2969 63.4696 63.4696 18.2969 -42985.4375 5792.25)">
				<stop  offset="0" style="stop-color:#8670B2"/>
				<stop  offset="1" style="stop-color:#3F2D71"/>
			</linearGradient>
			<path fill="url(#SVGID_4_)" d="M166.356,187.661c10.182,20.849,1.545,46.003-19.306,56.188
				c-20.85,10.185-46.007,1.541-56.188-19.306c-10.184-20.853-1.543-46.004,19.307-56.189
				C131.015,158.173,156.177,166.812,166.356,187.661z"/>
			<path fill="#010101" d="M166.356,187.661l-3.472,1.694c3.049,6.245,4.236,12.877,3.791,19.334
				c-0.455,6.58-2.612,12.956-6.242,18.458c-3.628,5.499-8.72,10.123-15.083,13.231c-6.236,3.048-12.874,4.237-19.326,3.79
				c-6.578-0.455-12.959-2.609-18.461-6.239c-5.502-3.633-10.123-8.716-13.229-15.085c-3.05-6.24-4.233-12.875-3.794-19.327
				c0.458-6.579,2.612-12.958,6.242-18.461c3.629-5.501,8.716-10.123,15.082-13.234c6.24-3.046,12.875-4.233,19.328-3.792
				c6.583,0.459,12.959,2.617,18.467,6.24c5.498,3.638,10.118,8.729,13.227,15.085L166.356,187.661l3.47-1.699
				c-3.728-7.623-9.303-13.773-15.923-18.136c-6.61-4.365-14.261-6.95-22.18-7.5c-7.758-0.537-15.774,0.899-23.253,4.554
				c-7.621,3.726-13.773,9.307-18.136,15.922c-4.363,6.619-6.956,14.264-7.499,22.185c-0.54,7.752,0.898,15.771,4.551,23.25
				c3.723,7.628,9.305,13.777,15.922,18.142c6.611,4.363,14.265,6.957,22.183,7.502c7.758,0.534,15.771-0.9,23.25-4.56
				c7.625-3.728,13.784-9.304,18.143-15.923c4.361-6.613,6.953-14.267,7.502-22.176c0.533-7.759-0.903-15.776-4.558-23.261
				L166.356,187.661z"/>
			<path fill="#FFFFFF" d="M137.239,175.946c2.624,1.725-9.328,0.558-21.177,6.347c-11.845,5.788-17.596,14.713-17.074,11.185
				c1.067-7.216,6.228-14.251,14.18-18.131C121.564,171.237,130.835,171.748,137.239,175.946z"/>
			<path fill="#102041" d="M161.271,213.775c0.317-3.866-7.636,8.678-22.287,15.829c-14.642,7.158-27.726,5.98-23.883,8.156
				c7.852,4.448,18.63,4.751,28.459-0.049C153.95,232.633,160.492,223.215,161.271,213.775z"/>
		</g>
		<g>
			
				<linearGradient id="SVGID_5_" gradientUnits="userSpaceOnUse" x1="-263.4326" y1="603.1738" x2="-262.4662" y2="603.1738" gradientTransform="matrix(-18.2969 63.4696 63.4696 18.2969 -42985.4375 5792.25)">
				<stop  offset="0" style="stop-color:#8670B2"/>
				<stop  offset="1" style="stop-color:#3F2D71"/>
			</linearGradient>
			<path fill="url(#SVGID_5_)" d="M147.994,115.736c10.178,20.846,1.541,46-19.307,56.184c-20.848,10.184-46.01,1.542-56.186-19.308
				c-10.188-20.849-1.542-46.001,19.303-56.188C112.652,86.241,137.811,94.88,147.994,115.736z"/>
			<path fill="#010101" d="M147.994,115.736l-3.475,1.691c3.05,6.24,4.233,12.875,3.792,19.331
				c-0.456,6.579-2.61,12.957-6.239,18.459c-3.63,5.502-8.72,10.126-15.086,13.229c-6.236,3.049-12.875,4.238-19.33,3.791
				c-6.575-0.45-12.957-2.61-18.459-6.238c-5.5-3.632-10.119-8.717-13.228-15.083c-3.049-6.24-4.231-12.875-3.791-19.329
				c0.456-6.578,2.608-12.962,6.239-18.459c3.63-5.501,8.716-10.123,15.081-13.23c6.24-3.055,12.878-4.239,19.328-3.796
				c6.583,0.455,12.963,2.615,18.464,6.242c5.5,3.635,10.125,8.724,13.229,15.083L147.994,115.736l3.474-1.702
				c-3.733-7.623-9.309-13.773-15.923-18.137c-6.615-4.363-14.267-6.951-22.182-7.501c-7.761-0.538-15.776,0.903-23.255,4.556
				c-7.623,3.728-13.774,9.307-18.134,15.922c-4.367,6.612-6.957,14.267-7.503,22.183c-0.542,7.754,0.899,15.769,4.555,23.253
				c3.722,7.626,9.301,13.776,15.919,18.139c6.611,4.362,14.263,6.958,22.183,7.499c7.757,0.534,15.771-0.9,23.249-4.558
				c7.626-3.723,13.783-9.302,18.145-15.919c4.358-6.617,6.953-14.268,7.499-22.176c0.534-7.764-0.901-15.78-4.553-23.261
				L147.994,115.736z"/>
			<path fill="#FFFFFF" d="M118.876,104.017c2.626,1.724-9.332,0.557-21.177,6.346c-11.845,5.786-17.598,14.711-17.071,11.184
				c1.06-7.214,6.222-14.252,14.176-18.13C103.201,99.308,112.475,99.819,118.876,104.017z"/>
			<path fill="#102041" d="M142.906,141.842c0.316-3.867-7.633,8.68-22.283,15.833c-14.647,7.158-27.728,5.976-23.89,8.16
				c7.854,4.44,18.633,4.75,28.464-0.055C135.587,160.704,142.126,151.285,142.906,141.842z"/>
		</g>
		<g>
			
				<linearGradient id="SVGID_6_" gradientUnits="userSpaceOnUse" x1="-262.25" y1="605.0898" x2="-261.2845" y2="605.0898" gradientTransform="matrix(-18.2969 63.4696 63.4696 18.2969 -42985.4375 5792.25)">
				<stop  offset="0" style="stop-color:#8670B2"/>
				<stop  offset="1" style="stop-color:#3F2D71"/>
			</linearGradient>
			<path fill="url(#SVGID_6_)" d="M247.99,225.899c10.182,20.844,1.543,46.001-19.307,56.183
				c-20.853,10.188-46.009,1.542-56.184-19.303c-10.192-20.853-1.551-46.005,19.299-56.191
				C212.648,196.403,237.804,205.049,247.99,225.899z"/>
			<path fill="#010101" d="M247.99,225.899l-3.476,1.69c3.045,6.245,4.238,12.877,3.79,19.336
				c-0.453,6.578-2.613,12.952-6.239,18.454c-3.63,5.499-8.719,10.126-15.086,13.235c-6.239,3.042-12.869,4.233-19.324,3.789
				c-6.577-0.453-12.96-2.611-18.459-6.242c-5.503-3.629-10.119-8.717-13.233-15.081c-3.049-6.239-4.229-12.878-3.79-19.329
				c0.454-6.579,2.609-12.96,6.24-18.46c3.627-5.503,8.718-10.124,15.082-13.232c6.239-3.05,12.873-4.237,19.33-3.792
				c6.579,0.451,12.954,2.611,18.458,6.238c5.504,3.641,10.123,8.726,13.231,15.084L247.99,225.899l3.472-1.702
				c-3.731-7.622-9.304-13.773-15.926-18.137c-6.611-4.364-14.266-6.95-22.181-7.503c-7.758-0.536-15.775,0.903-23.248,4.559
				c-7.626,3.726-13.778,9.309-18.142,15.922c-4.367,6.615-6.953,14.267-7.501,22.187c-0.542,7.748,0.903,15.771,4.559,23.244
				c3.722,7.627,9.298,13.782,15.915,18.145c6.615,4.365,14.269,6.953,22.186,7.5c7.753,0.534,15.771-0.902,23.244-4.559
				c7.631-3.726,13.786-9.304,18.145-15.921c4.365-6.616,6.956-14.267,7.502-22.176c0.534-7.761-0.9-15.777-4.553-23.261
				L247.99,225.899z"/>
			<path fill="#FFFFFF" d="M218.874,214.181c2.621,1.723-9.332,0.56-21.179,6.344c-11.846,5.788-17.601,14.715-17.075,11.186
				c1.062-7.216,6.225-14.249,14.18-18.127C203.197,209.475,212.465,209.984,218.874,214.181z"/>
			<path fill="#102041" d="M242.898,252.003c0.323-3.865-7.631,8.683-22.281,15.838c-14.644,7.158-27.729,5.978-23.887,8.154
				c7.854,4.441,18.631,4.753,28.461-0.048C235.579,270.869,242.119,261.448,242.898,252.003z"/>
		</g>
		<g>
			
				<linearGradient id="SVGID_7_" gradientUnits="userSpaceOnUse" x1="-263.127" y1="604.4102" x2="-262.1614" y2="604.4102" gradientTransform="matrix(-18.2969 63.4696 63.4696 18.2969 -42985.4375 5792.25)">
				<stop  offset="0" style="stop-color:#8670B2"/>
				<stop  offset="1" style="stop-color:#3F2D71"/>
			</linearGradient>
			<path fill="url(#SVGID_7_)" d="M220.9,157.733c10.186,20.847,1.547,46.005-19.304,56.187
				c-20.846,10.184-46.006,1.542-56.188-19.307c-10.187-20.847-1.545-46.003,19.307-56.188
				C185.564,128.243,210.721,136.886,220.9,157.733z"/>
			<path fill="#010101" d="M220.9,157.733l-3.472,1.692c3.049,6.244,4.236,12.877,3.795,19.335
				c-0.458,6.572-2.615,12.956-6.243,18.458c-3.63,5.498-8.719,10.124-15.083,13.229c-6.242,3.051-12.879,4.24-19.327,3.794
				c-6.574-0.455-12.959-2.612-18.457-6.244c-5.504-3.629-10.123-8.717-13.235-15.08c-3.049-6.242-4.233-12.879-3.787-19.328
				c0.449-6.579,2.609-12.961,6.234-18.46c3.634-5.502,8.722-10.125,15.085-13.232c6.239-3.05,12.876-4.236,19.332-3.795
				c6.573,0.458,12.955,2.611,18.462,6.244c5.497,3.634,10.12,8.725,13.225,15.08L220.9,157.733l3.474-1.698
				c-3.731-7.625-9.303-13.775-15.918-18.141c-6.616-4.358-14.266-6.951-22.183-7.498c-7.76-0.542-15.78,0.9-23.253,4.555
				c-7.622,3.723-13.778,9.306-18.137,15.924c-4.368,6.611-6.957,14.266-7.5,22.183c-0.54,7.758,0.9,15.771,4.551,23.246
				c3.725,7.628,9.304,13.783,15.918,18.14c6.619,4.367,14.269,6.962,22.188,7.504c7.753,0.539,15.771-0.9,23.245-4.558
				c7.631-3.724,13.787-9.305,18.145-15.919c4.36-6.615,6.954-14.269,7.502-22.178c0.531-7.764-0.904-15.778-4.559-23.259
				L220.9,157.733z"/>
			<path fill="#FFFFFF" d="M191.79,146.019c2.625,1.725-9.331,0.556-21.183,6.348c-11.839,5.782-17.596,14.709-17.071,11.182
				c1.063-7.216,6.229-14.253,14.182-18.132C176.115,141.309,185.381,141.818,191.79,146.019z"/>
			<path fill="#102041" d="M215.816,183.844c0.319-3.868-7.633,8.68-22.282,15.835c-14.644,7.157-27.721,5.973-23.884,8.154
				c7.846,4.444,18.625,4.752,28.458-0.053C208.498,202.704,215.037,193.287,215.816,183.844z"/>
		</g>
		<g>
			
				<linearGradient id="SVGID_8_" gradientUnits="userSpaceOnUse" x1="-262.8677" y1="605.7441" x2="-261.9021" y2="605.7441" gradientTransform="matrix(-18.2969 63.4696 63.4696 18.2969 -42985.4375 5792.25)">
				<stop  offset="0" style="stop-color:#8670B2"/>
				<stop  offset="1" style="stop-color:#3F2D71"/>
			</linearGradient>
			<path fill="url(#SVGID_8_)" d="M300.812,198.599c10.184,20.847,1.542,46.003-19.306,56.184
				c-20.848,10.187-46.006,1.543-56.188-19.306c-10.186-20.849-1.541-46.004,19.307-56.188
				C265.474,169.104,290.631,177.746,300.812,198.599z"/>
			<path fill="#010101" d="M300.812,198.599l-3.476,1.691c3.054,6.239,4.237,12.876,3.795,19.336
				c-0.454,6.572-2.612,12.951-6.242,18.457c-3.63,5.495-8.718,10.122-15.082,13.229c-6.239,3.047-12.876,4.238-19.327,3.794
				c-6.575-0.456-12.962-2.613-18.462-6.242c-5.501-3.629-10.122-8.719-13.231-15.082c-3.054-6.245-4.229-12.88-3.785-19.331
				c0.45-6.582,2.604-12.962,6.234-18.457c3.625-5.501,8.719-10.126,15.083-13.237c6.241-3.045,12.876-4.234,19.329-3.788
				c6.578,0.451,12.955,2.613,18.458,6.24c5.504,3.637,10.122,8.722,13.23,15.082L300.812,198.599l3.474-1.7
				c-3.732-7.623-9.309-13.775-15.921-18.139c-6.617-4.362-14.27-6.951-22.184-7.505c-7.765-0.53-15.774,0.909-23.253,4.558
				c-7.622,3.727-13.775,9.304-18.14,15.925c-4.36,6.616-6.95,14.267-7.5,22.182c-0.54,7.754,0.902,15.775,4.557,23.251
				c3.721,7.629,9.303,13.779,15.918,18.14c6.614,4.364,14.266,6.958,22.183,7.502c7.76,0.535,15.776-0.899,23.249-4.559
				c7.63-3.72,13.784-9.304,18.148-15.922c4.361-6.616,6.953-14.265,7.499-22.176c0.531-7.762-0.903-15.776-4.557-23.258
				L300.812,198.599z"/>
			<path fill="#FFFFFF" d="M271.697,186.882c2.622,1.724-9.328,0.56-21.18,6.344c-11.847,5.787-17.596,14.709-17.072,11.184
				c1.062-7.216,6.225-14.248,14.179-18.125C256.024,182.173,265.287,182.686,271.697,186.882z"/>
			<path fill="#102041" d="M295.724,224.705c0.315-3.866-7.635,8.682-22.284,15.837c-14.642,7.152-27.725,5.973-23.883,8.153
				c7.849,4.442,18.629,4.753,28.46-0.048C288.406,243.569,294.945,234.147,295.724,224.705z"/>
		</g>
		<g>
			
				<linearGradient id="SVGID_9_" gradientUnits="userSpaceOnUse" x1="-263.6113" y1="605.4551" x2="-262.6458" y2="605.4551" gradientTransform="matrix(-18.2969 63.4696 63.4696 18.2969 -42985.4375 5792.25)">
				<stop  offset="0" style="stop-color:#8670B2"/>
				<stop  offset="1" style="stop-color:#3F2D71"/>
			</linearGradient>
			<path fill="url(#SVGID_9_)" d="M296.16,146.208c10.184,20.848,1.544,46.005-19.306,56.19
				c-20.848,10.183-46.01,1.535-56.188-19.312c-10.187-20.848-1.544-46.002,19.304-56.186
				C260.817,116.715,285.976,125.358,296.16,146.208z"/>
			<path fill="#010101" d="M296.16,146.208l-3.479,1.693c3.054,6.245,4.236,12.876,3.795,19.335
				c-0.455,6.576-2.608,12.949-6.24,18.456c-3.626,5.501-8.721,10.124-15.082,13.232c-6.239,3.047-12.874,4.235-19.328,3.791
				c-6.577-0.455-12.96-2.612-18.459-6.242c-5.501-3.635-10.123-8.717-13.234-15.079c-3.044-6.246-4.227-12.88-3.787-19.334
				c0.448-6.579,2.609-12.955,6.238-18.455c3.63-5.504,8.716-10.127,15.082-13.235c6.242-3.049,12.873-4.237,19.33-3.791
				c6.578,0.451,12.954,2.61,18.458,6.24c5.501,3.635,10.122,8.722,13.228,15.082L296.16,146.208l3.472-1.699
				c-3.73-7.625-9.306-13.775-15.92-18.139c-6.614-4.362-14.269-6.95-22.187-7.496c-7.757-0.54-15.773,0.897-23.25,4.553
				c-7.626,3.724-13.776,9.304-18.14,15.922c-4.366,6.614-6.953,14.27-7.497,22.182c-0.546,7.754,0.9,15.775,4.554,23.25
				c3.726,7.63,9.301,13.783,15.918,18.142c6.613,4.362,14.263,6.957,22.184,7.501c7.755,0.534,15.772-0.901,23.247-4.557
				c7.63-3.728,13.784-9.304,18.146-15.922c4.362-6.619,6.952-14.265,7.498-22.178c0.536-7.76-0.9-15.777-4.554-23.258
				L296.16,146.208z"/>
			<path fill="#FFFFFF" d="M267.045,134.494c2.623,1.722-9.333,0.559-21.178,6.346c-11.849,5.785-17.6,14.709-17.075,11.183
				c1.062-7.219,6.228-14.251,14.178-18.13C251.369,129.782,260.637,130.294,267.045,134.494z"/>
			<path fill="#102041" d="M291.073,172.313c0.318-3.865-7.636,8.683-22.286,15.842c-14.64,7.151-27.727,5.972-23.881,8.15
				c7.849,4.445,18.626,4.753,28.456-0.05C283.751,191.183,290.294,181.763,291.073,172.313z"/>
		</g>
		<g>
			
				<linearGradient id="SVGID_10_" gradientUnits="userSpaceOnUse" x1="-264.1753" y1="603.6602" x2="-263.2097" y2="603.6602" gradientTransform="matrix(-18.2969 63.4696 63.4696 18.2969 -42985.4375 5792.25)">
				<stop  offset="0" style="stop-color:#8670B2"/>
				<stop  offset="1" style="stop-color:#3F2D71"/>
			</linearGradient>
			<path fill="url(#SVGID_10_)" d="M192.509,77.479c10.181,20.851,1.539,46.006-19.311,56.188
				c-20.845,10.185-46,1.542-56.188-19.308c-10.185-20.847-1.54-46.003,19.307-56.184C157.166,47.985,182.326,56.63,192.509,77.479z
				"/>
			<path fill="#010101" d="M192.509,77.479l-3.477,1.693c3.051,6.244,4.237,12.88,3.798,19.335
				c-0.459,6.581-2.615,12.955-6.245,18.457c-3.627,5.5-8.72,10.125-15.083,13.232c-6.239,3.044-12.875,4.237-19.329,3.794
				c-6.579-0.459-12.958-2.613-18.458-6.248c-5.501-3.624-10.119-8.715-13.23-15.076c-3.054-6.246-4.233-12.882-3.793-19.332
				c0.458-6.583,2.609-12.96,6.241-18.463c3.629-5.5,8.717-10.12,15.083-13.23c6.239-3.049,12.874-4.234,19.33-3.793
				c6.576,0.456,12.955,2.615,18.458,6.24c5.501,3.639,10.124,8.727,13.229,15.083L192.509,77.479l3.469-1.698
				c-3.726-7.626-9.303-13.777-15.919-18.14c-6.617-4.362-14.263-6.951-22.184-7.5c-7.758-0.537-15.774,0.903-23.251,4.558
				c-7.618,3.725-13.779,9.309-18.139,15.923c-4.363,6.612-6.953,14.27-7.502,22.184c-0.542,7.753,0.903,15.77,4.555,23.246
				c3.727,7.63,9.305,13.782,15.923,18.145c6.612,4.361,14.264,6.956,22.18,7.5c7.758,0.533,15.775-0.902,23.249-4.558
				c7.628-3.722,13.784-9.306,18.149-15.924c4.358-6.614,6.949-14.267,7.498-22.176c0.535-7.76-0.903-15.772-4.559-23.258
				L192.509,77.479z"/>
			<path fill="#FFFFFF" d="M163.39,65.766c2.627,1.724-9.325,0.555-21.173,6.345c-11.849,5.789-17.604,14.711-17.078,11.183
				c1.064-7.216,6.228-14.251,14.176-18.13C147.718,61.052,156.986,61.567,163.39,65.766z"/>
			<path fill="#102041" d="M187.422,103.589c0.318-3.866-7.638,8.678-22.284,15.835c-14.648,7.154-27.729,5.975-23.889,8.153
				c7.851,4.444,18.631,4.757,28.463-0.046C180.104,122.45,186.643,113.033,187.422,103.589z"/>
		</g>
		<g>
			
				<linearGradient id="SVGID_11_" gradientUnits="userSpaceOnUse" x1="-264.2334" y1="604.666" x2="-263.2673" y2="604.666" gradientTransform="matrix(-18.2969 63.4696 63.4696 18.2969 -42985.4375 5792.25)">
				<stop  offset="0" style="stop-color:#8670B2"/>
				<stop  offset="1" style="stop-color:#3F2D71"/>
			</linearGradient>
			<path fill="url(#SVGID_11_)" d="M257.401,92.202c10.18,20.852,1.539,46-19.312,56.187c-20.843,10.185-46.003,1.542-56.183-19.307
				c-10.186-20.848-1.547-46.005,19.306-56.19C222.06,62.707,247.213,71.349,257.401,92.202z"/>
			<path fill="#010101" d="M257.401,92.202l-3.478,1.691c3.052,6.245,4.239,12.88,3.793,19.338
				c-0.453,6.575-2.61,12.951-6.241,18.454c-3.627,5.502-8.72,10.124-15.08,13.234c-6.243,3.046-12.875,4.236-19.327,3.789
				c-6.579-0.453-12.963-2.612-18.461-6.242c-5.501-3.628-10.123-8.718-13.236-15.081c-3.048-6.244-4.229-12.875-3.786-19.33
				c0.451-6.581,2.606-12.959,6.234-18.456c3.635-5.506,8.725-10.123,15.087-13.234c6.24-3.049,12.875-4.237,19.329-3.792
				c6.577,0.453,12.959,2.613,18.458,6.238c5.504,3.637,10.126,8.722,13.23,15.083L257.401,92.202l3.464-1.698
				c-3.723-7.626-9.3-13.777-15.915-18.142c-6.617-4.362-14.269-6.95-22.181-7.498c-7.762-0.537-15.776,0.901-23.252,4.554
				c-7.625,3.725-13.781,9.306-18.143,15.921c-4.361,6.615-6.953,14.268-7.497,22.188c-0.54,7.751,0.9,15.766,4.55,23.247
				c3.727,7.627,9.304,13.777,15.921,18.137c6.617,4.369,14.266,6.958,22.187,7.506c7.753,0.532,15.771-0.902,23.245-4.559
				c7.631-3.727,13.781-9.306,18.147-15.925c4.359-6.615,6.95-14.268,7.5-22.174c0.533-7.761-0.904-15.779-4.562-23.257
				L257.401,92.202z"/>
			<path fill="#FFFFFF" d="M228.284,80.486c2.625,1.724-9.333,0.557-21.175,6.347c-11.848,5.781-17.601,14.712-17.078,11.179
				c1.062-7.213,6.229-14.25,14.176-18.129C212.609,75.779,221.877,76.287,228.284,80.486z"/>
			<path fill="#102041" d="M252.315,118.31c0.311-3.869-7.635,8.677-22.286,15.834c-14.644,7.158-27.729,5.979-23.887,8.156
				c7.845,4.446,18.627,4.75,28.46-0.052C244.997,137.172,251.532,127.756,252.315,118.31z"/>
		</g>
		<g>
			<path fill="#010101" d="M222.669,45.513l3.798-6.206c10.48,6.406,17.565,14.688,22.229,22.536
				c4.04,6.797,6.323,13.276,7.621,18.183c0.651,2.453,1.054,4.518,1.302,6.042c0.252,1.533,0.344,2.494,0.367,2.831l0.002,0.016
				l0.003,0.045l-7.257,0.531l6.969-2.093v0.009l0.941,3.135l-1.713,2.782c-0.183,0.296-1.507,2.4-4.064,5.23
				c-2.552,2.815-6.35,6.369-11.521,9.451c-3.271,1.95-7.091,3.699-11.454,4.905c-6.534,1.821-14.289,2.366-22.901,0.675
				c-8.629-1.687-18.084-5.563-28.334-12.345c-8.662-5.757-16.275-13.895-22.827-22.166c-6.535-8.274-11.945-16.711-15.746-23.094
				c-3.429-5.764-5.538-9.843-5.907-10.569l-0.032-0.062l-0.077-0.149l-4.105-8.425l9.176-1.895
				c0.21-0.037,14.744-3.044,32.705-4.116c8.987-0.531,18.843-0.587,28.32,0.527c4.743,0.564,9.4,1.415,13.83,2.691
				c4.426,1.285,8.641,2.987,12.474,5.329L222.669,45.513l-3.8,6.21c-2.415-1.484-5.438-2.757-8.916-3.758
				c-6.07-1.762-13.461-2.669-21.049-2.924c-11.389-0.402-23.202,0.619-32.086,1.749c-4.448,0.568-8.163,1.161-10.755,1.609
				c-1.298,0.222-2.304,0.408-2.988,0.538c-0.34,0.066-0.598,0.115-0.767,0.147l-0.185,0.04l-0.039,0.006l-0.005,0.001l-1.47-7.125
				l6.54-3.189l0.044,0.094l-6.539,3.188l6.482-3.312c0.256,0.506,2.228,4.328,5.452,9.748c3.572,5.998,8.69,13.958,14.663,21.518
				c5.955,7.564,12.825,14.702,19.435,19.05c5.971,3.954,11.375,6.606,16.226,8.311c7.279,2.553,13.279,3,18.335,2.403
				c5.047-0.6,9.217-2.275,12.653-4.318c3.613-2.143,6.377-4.718,8.181-6.716c0.902-0.999,1.563-1.846,1.977-2.407
				c0.205-0.283,0.354-0.492,0.434-0.614l0.073-0.115v-0.002l3.932,2.472l-3.956-2.438l0.024-0.034l3.932,2.472l-3.956-2.438
				l6.196,3.823l-6.967,2.095l-0.004-0.012l-0.227-0.763l-0.063-0.806l0.005,0.038l-0.004,0.01c-0.015-0.218-0.28-2.84-1.328-6.68
				c-1.038-3.848-2.871-8.91-5.957-14.094c-3.7-6.194-9.119-12.546-17.319-17.568L222.669,45.513z"/>
			<g>
				<path fill="#56B947" d="M250.737,89.502c0,0-22.211,36.01-68.062,5.67c-22.183-14.683-41.012-51.102-42.02-53.073
					c12.246,1.732,48.226,7.674,70.703,20.444c16.694,9.485,30.849,20.085,39.376,26.936v0.012L250.737,89.502z"/>
				<path fill="#93C83E" d="M250.734,89.479c-8.527-6.851-22.682-17.451-39.376-26.936c-22.478-12.77-58.458-18.712-70.703-20.444
					l-0.046-0.093c0,0,57.096-11.781,82.06,3.507C248.164,61.113,250.67,88.676,250.734,89.479z"/>
			</g>
			<path fill="#010101" d="M250.737,89.502l-3.755,0.904l-0.013-0.013l-0.037-0.177l-0.025-0.2l-0.012-0.116l-0.012-0.108
				c-0.007-0.065-0.278-3.18-1.566-7.772c-1.265-4.501-3.506-10.423-7.386-16.39c-3.889-5.971-9.388-11.995-17.28-16.823
				c-2.745-1.68-6.057-3.056-9.752-4.123c-6.468-1.871-14.104-2.792-21.874-3.061c-11.672-0.405-23.63,0.636-32.639,1.782
				c-4.501,0.575-8.27,1.169-10.901,1.631c-1.314,0.224-2.35,0.418-3.05,0.548c-0.347,0.068-0.612,0.123-0.788,0.156
				c-0.089,0.015-0.156,0.027-0.194,0.041l-0.055,0.007l-0.789-3.783l3.488-1.664l0.045,0.093l-3.487,1.664l3.442-1.76
				c0.457,0.894,5.355,10.371,12.819,21.361c3.732,5.493,8.112,11.356,12.866,16.693c4.746,5.348,9.877,10.161,15.021,13.561
				c9.298,6.15,17.419,9.366,24.41,10.716c6.986,1.352,12.859,0.861,17.827-0.529c6.832-1.915,11.972-5.621,15.416-8.872
				c1.717-1.614,2.996-3.116,3.832-4.189c0.414-0.532,0.728-0.959,0.919-1.246c0.097-0.138,0.164-0.235,0.204-0.306l0.042-0.06
				v-0.007l1.793,1.125l-1.798-1.113l0.005-0.012l1.793,1.125l-1.798-1.113L250.737,89.502l-3.755,0.904L250.737,89.502l3.29,2.026
				c-0.128,0.205-2.171,3.495-6.27,7.36c-4.088,3.863-10.263,8.342-18.63,10.692c-6.059,1.707-13.24,2.256-21.387,0.676
				c-8.143-1.572-17.212-5.249-27.192-11.857c-5.949-3.944-11.492-9.191-16.54-14.869c-7.572-8.516-14.042-18.018-18.749-25.605
				c-4.702-7.591-7.626-13.255-8.044-14.071l-0.025-0.046l-0.066-0.137l-2.126-4.451l4.835-0.998
				c0.11-0.018,14.516-2.996,32.218-4.048c8.849-0.526,18.526-0.574,27.708,0.507c4.596,0.539,9.079,1.369,13.288,2.582
				c4.198,1.218,8.141,2.816,11.639,4.956c8.976,5.494,15.316,12.417,19.726,19.202c4.411,6.781,6.914,13.43,8.341,18.514
				c1.459,5.198,1.79,8.751,1.831,9.232l-3.85,0.314l3.824-0.534l0.003,0.01l-3.827,0.535l3.755-0.897v0.005l0.38,1.565
				l-0.842,1.364L250.737,89.502z"/>
		</g>
	</g>
</g>
</svg>
