<?xml version="1.0" encoding="utf-8"?>
<!-- Generator: Adobe Illustrator 15.1.0, SVG Export Plug-In . SVG Version: 6.00 Build 0)  -->
<!DOCTYPE svg PUBLIC "-//W3C//DTD SVG 1.1//EN" "http://www.w3.org/Graphics/SVG/1.1/DTD/svg11.dtd">
<svg version="1.1" id="Layer_1" xmlns="http://www.w3.org/2000/svg" xmlns:xlink="http://www.w3.org/1999/xlink" x="0px" y="0px"
	 width="320px" height="320px" viewBox="0 0 320 320" enable-background="new 0 0 320 320" xml:space="preserve">
<g>
	
		<linearGradient id="SVGID_1_" gradientUnits="userSpaceOnUse" x1="76.0176" y1="-78.3379" x2="101.2158" y2="-78.3379" gradientTransform="matrix(0.8559 0.5172 -0.5172 0.8559 108.2491 100.9294)">
		<stop  offset="0" style="stop-color:#74BF44"/>
		<stop  offset="1" style="stop-color:#007340"/>
	</linearGradient>
	<path fill="url(#SVGID_1_)" d="M207.389,104.124c0,0,20.958-36.002,17.393-49.052c5.166-2.094,9.696-6.291,17.252,0.941
		c6.608,15.798-18.131,48.379-21.861,52.774C215.073,106.486,207.389,104.124,207.389,104.124z"/>
	<g>
		<radialGradient id="SVGID_2_" cx="139.626" cy="87.1401" r="52.0794" gradientUnits="userSpaceOnUse">
			<stop  offset="0" style="stop-color:#4878BB"/>
			<stop  offset="0.2822" style="stop-color:#374EA1"/>
			<stop  offset="1" style="stop-color:#211D70"/>
		</radialGradient>
		<path fill="url(#SVGID_2_)" d="M208.284,97.693c0,28.764-23.314,52.08-52.08,52.08c-28.765,0-52.079-23.316-52.079-52.08
			c0-28.766,23.314-52.081,52.079-52.081C184.97,45.613,208.284,68.927,208.284,97.693z"/>
		<path fill="#FFFFFF" d="M127.98,82.837c4.381-10.128,10.637-19.406,18.284-27.629c-6.886,1.366-29.479,12.771-29.479,36.632
			c0,6.629,1.634,13.022,4.65,19.035C121.832,101.71,123.897,92.277,127.98,82.837z"/>
	</g>
	<g>
		<radialGradient id="SVGID_3_" cx="118.7285" cy="161.9951" r="52.0796" gradientUnits="userSpaceOnUse">
			<stop  offset="0" style="stop-color:#4878BB"/>
			<stop  offset="0.2822" style="stop-color:#374EA1"/>
			<stop  offset="1" style="stop-color:#211D70"/>
		</radialGradient>
		<path fill="url(#SVGID_3_)" d="M187.387,172.546c0,28.767-23.314,52.083-52.078,52.083c-28.766,0-52.081-23.316-52.081-52.083
			c0-28.761,23.314-52.078,52.081-52.078C164.072,120.468,187.387,143.785,187.387,172.546z"/>
		<path fill="#FFFFFF" d="M107.083,157.692c4.382-10.129,10.64-19.403,18.286-27.63c-6.887,1.369-29.481,12.774-29.481,36.634
			c0,6.629,1.637,13.02,4.65,19.034C100.934,176.568,103.001,167.131,107.083,157.692z"/>
	</g>
	<g>
		<radialGradient id="SVGID_4_" cx="43.7422" cy="214.0732" r="52.0803" gradientUnits="userSpaceOnUse">
			<stop  offset="0" style="stop-color:#4878BB"/>
			<stop  offset="0.2822" style="stop-color:#374EA1"/>
			<stop  offset="1" style="stop-color:#211D70"/>
		</radialGradient>
		<path fill="url(#SVGID_4_)" d="M112.401,224.629c0,28.762-23.314,52.079-52.08,52.079c-28.764,0-52.08-23.317-52.08-52.079
			c0-28.766,23.316-52.083,52.08-52.083C89.087,172.546,112.401,195.863,112.401,224.629z"/>
		<path fill="#FFFFFF" d="M32.096,209.771c4.384-10.129,10.639-19.403,18.286-27.629c-6.885,1.367-29.48,12.771-29.48,36.631
			c0,6.631,1.635,13.026,4.65,19.037C25.949,228.648,28.015,219.214,32.096,209.771z"/>
	</g>
	<g>
		<radialGradient id="SVGID_5_" cx="186.4141" cy="145.0332" r="52.08" gradientUnits="userSpaceOnUse">
			<stop  offset="0" style="stop-color:#4878BB"/>
			<stop  offset="0.2822" style="stop-color:#374EA1"/>
			<stop  offset="1" style="stop-color:#211D70"/>
		</radialGradient>
		<path fill="url(#SVGID_5_)" d="M255.073,155.585c0,28.766-23.322,52.082-52.078,52.082c-28.771,0-52.082-23.316-52.082-52.082
			c0-28.765,23.31-52.079,52.082-52.079C231.751,103.506,255.073,126.82,255.073,155.585z"/>
		<path fill="#FFFFFF" d="M174.768,140.729c4.384-10.126,10.64-19.403,18.28-27.629c-6.881,1.368-29.476,12.773-29.476,36.634
			c0,6.63,1.637,13.023,4.646,19.034C168.614,159.605,170.682,150.169,174.768,140.729z"/>
	</g>
	<g>
		<radialGradient id="SVGID_6_" cx="139.626" cy="214.0732" r="52.0799" gradientUnits="userSpaceOnUse">
			<stop  offset="0" style="stop-color:#4878BB"/>
			<stop  offset="0.2822" style="stop-color:#374EA1"/>
			<stop  offset="1" style="stop-color:#211D70"/>
		</radialGradient>
		<path fill="url(#SVGID_6_)" d="M208.284,224.629c0,28.762-23.314,52.079-52.08,52.079c-28.765,0-52.079-23.317-52.079-52.079
			c0-28.766,23.314-52.083,52.079-52.083C184.97,172.546,208.284,195.863,208.284,224.629z"/>
		<path fill="#FFFFFF" d="M127.98,209.771c4.381-10.129,10.637-19.403,18.284-27.629c-6.886,1.367-29.479,12.771-29.479,36.631
			c0,6.631,1.634,13.026,4.65,19.037C121.832,228.648,123.897,219.214,127.98,209.771z"/>
	</g>
	<g>
		<radialGradient id="SVGID_7_" cx="233.1982" cy="214.0732" r="52.0799" gradientUnits="userSpaceOnUse">
			<stop  offset="0" style="stop-color:#4878BB"/>
			<stop  offset="0.2822" style="stop-color:#374EA1"/>
			<stop  offset="1" style="stop-color:#211D70"/>
		</radialGradient>
		<path fill="url(#SVGID_7_)" d="M301.856,224.629c0,28.762-23.315,52.079-52.078,52.079c-28.766,0-52.081-23.317-52.081-52.079
			c0-28.766,23.315-52.083,52.081-52.083C278.541,172.546,301.856,195.863,301.856,224.629z"/>
		<path fill="#FFFFFF" d="M221.552,209.771c4.383-10.129,10.638-19.403,18.286-27.629c-6.888,1.367-29.481,12.771-29.481,36.631
			c0,6.631,1.636,13.026,4.649,19.037C215.403,228.648,217.469,219.214,221.552,209.771z"/>
	</g>
	<g>
		
			<linearGradient id="SVGID_8_" gradientUnits="userSpaceOnUse" x1="86.002" y1="-74.7588" x2="163.6582" y2="-74.7588" gradientTransform="matrix(0.8559 0.5172 -0.5172 0.8559 108.2491 100.9294)">
			<stop  offset="0" style="stop-color:#74BF44"/>
			<stop  offset="1" style="stop-color:#007340"/>
		</linearGradient>
		<path fill="url(#SVGID_8_)" d="M208.013,103.603c0,0,8.3-25.494,33.197-23.828c24.899,1.677,40.603,19.95,60.919,16.759
			C254.574,161.398,208.013,103.603,208.013,103.603z"/>
		
			<linearGradient id="SVGID_9_" gradientUnits="userSpaceOnUse" x1="115.2773" y1="-80.9868" x2="156.3882" y2="-58.176" gradientTransform="matrix(0.8559 0.5172 -0.5172 0.8559 108.2491 100.9294)">
			<stop  offset="0" style="stop-color:#74BF44"/>
			<stop  offset="1" style="stop-color:#007340"/>
		</linearGradient>
		<path fill="url(#SVGID_9_)" d="M210.441,102.96c20.335-14.033,68.826,9.691,87.753-4.212
			C295.449,102.257,257.936,156.665,210.441,102.96z"/>
	</g>
</g>
</svg>
