<?xml version="1.0" encoding="UTF-8" standalone="no"?>
<!-- Created with Inkscape (http://www.inkscape.org/) -->

<svg
   xmlns:dc="http://purl.org/dc/elements/1.1/"
   xmlns:cc="http://creativecommons.org/ns#"
   xmlns:rdf="http://www.w3.org/1999/02/22-rdf-syntax-ns#"
   xmlns:svg="http://www.w3.org/2000/svg"
   xmlns="http://www.w3.org/2000/svg"
   xmlns:xlink="http://www.w3.org/1999/xlink"
   xmlns:sodipodi="http://sodipodi.sourceforge.net/DTD/sodipodi-0.dtd"
   xmlns:inkscape="http://www.inkscape.org/namespaces/inkscape"
   width="320"
   height="320"
   id="svg3439"
   version="1.1"
   inkscape:version="0.48.2 r9819"
   sodipodi:docname="New document 2">
  <defs
     id="defs3441">
    <radialGradient
       inkscape:collect="always"
       xlink:href="#SVGID_1_"
       id="radialGradient3199"
       gradientUnits="userSpaceOnUse"
       gradientTransform="translate(-1.2275,-2.71)"
       cx="265.28711"
       cy="419.52051"
       r="75.262001" />
    <radialGradient
       id="SVGID_1_"
       cx="265.28711"
       cy="419.52051"
       r="75.262001"
       gradientTransform="translate(-1.2275,-2.71)"
       gradientUnits="userSpaceOnUse">
      <stop
         offset="0"
         style="stop-color:#00A2E5"
         id="stop54" />
      <stop
         offset="0.09"
         style="stop-color:#00A2E5"
         id="stop56" />
      <stop
         offset="0.1892"
         style="stop-color:#0096D7"
         id="stop58" />
      <stop
         offset="0.3752"
         style="stop-color:#007CBB"
         id="stop60" />
      <stop
         offset="0.626"
         style="stop-color:#005692"
         id="stop62" />
      <stop
         offset="0.72"
         style="stop-color:#004883"
         id="stop64" />
      <stop
         offset="1"
         style="stop-color:#004883"
         id="stop66" />
    </radialGradient>
    <radialGradient
       inkscape:collect="always"
       xlink:href="#SVGID_2_"
       id="radialGradient3201"
       gradientUnits="userSpaceOnUse"
       gradientTransform="translate(-1.2275,-2.71)"
       cx="265.28711"
       cy="419.52151"
       r="75.260696" />
    <radialGradient
       id="SVGID_2_"
       cx="265.28711"
       cy="419.52151"
       r="75.260696"
       gradientTransform="translate(-1.2275,-2.71)"
       gradientUnits="userSpaceOnUse">
      <stop
         offset="0"
         style="stop-color:#FFFFFF"
         id="stop71" />
      <stop
         offset="0.15"
         style="stop-color:#FFFFFF"
         id="stop73" />
      <stop
         offset="1"
         style="stop-color:#00669B"
         id="stop75" />
    </radialGradient>
    <radialGradient
       inkscape:collect="always"
       xlink:href="#SVGID_3_"
       id="radialGradient3203"
       gradientUnits="userSpaceOnUse"
       gradientTransform="translate(-1.2275,-2.71)"
       cx="265.28711"
       cy="419.5264"
       r="75.257401" />
    <radialGradient
       id="SVGID_3_"
       cx="265.28711"
       cy="419.5264"
       r="75.257401"
       gradientTransform="translate(-1.2275,-2.71)"
       gradientUnits="userSpaceOnUse">
      <stop
         offset="0"
         style="stop-color:#FFFFFF"
         id="stop80" />
      <stop
         offset="0.15"
         style="stop-color:#FFFFFF"
         id="stop82" />
      <stop
         offset="1"
         style="stop-color:#00669B"
         id="stop84" />
    </radialGradient>
    <radialGradient
       inkscape:collect="always"
       xlink:href="#SVGID_4_"
       id="radialGradient3205"
       gradientUnits="userSpaceOnUse"
       gradientTransform="translate(-1.2275,-2.71)"
       cx="265.28711"
       cy="419.5195"
       r="75.262299" />
    <radialGradient
       id="SVGID_4_"
       cx="265.28711"
       cy="419.5195"
       r="75.262299"
       gradientTransform="translate(-1.2275,-2.71)"
       gradientUnits="userSpaceOnUse">
      <stop
         offset="0"
         style="stop-color:#FFFFFF"
         id="stop89" />
      <stop
         offset="0.15"
         style="stop-color:#FFFFFF"
         id="stop91" />
      <stop
         offset="1"
         style="stop-color:#00669B"
         id="stop93" />
    </radialGradient>
    <radialGradient
       inkscape:collect="always"
       xlink:href="#SVGID_5_"
       id="radialGradient3207"
       gradientUnits="userSpaceOnUse"
       gradientTransform="translate(-1.2275,-2.71)"
       cx="265.28711"
       cy="419.52051"
       r="75.261803" />
    <radialGradient
       id="SVGID_5_"
       cx="265.28711"
       cy="419.52051"
       r="75.261803"
       gradientTransform="translate(-1.2275,-2.71)"
       gradientUnits="userSpaceOnUse">
      <stop
         offset="0"
         style="stop-color:#FFFFFF"
         id="stop98" />
      <stop
         offset="0.15"
         style="stop-color:#FFFFFF"
         id="stop100" />
      <stop
         offset="1"
         style="stop-color:#00669B"
         id="stop102" />
    </radialGradient>
    <radialGradient
       inkscape:collect="always"
       xlink:href="#SVGID_6_"
       id="radialGradient3209"
       gradientUnits="userSpaceOnUse"
       gradientTransform="translate(-1.2275,-2.71)"
       cx="265.28711"
       cy="419.52051"
       r="75.262001" />
    <radialGradient
       id="SVGID_6_"
       cx="265.28711"
       cy="419.52051"
       r="75.262001"
       gradientTransform="translate(-1.2275,-2.71)"
       gradientUnits="userSpaceOnUse">
      <stop
         offset="0"
         style="stop-color:#FFFFFF"
         id="stop107" />
      <stop
         offset="0.15"
         style="stop-color:#FFFFFF"
         id="stop109" />
      <stop
         offset="1"
         style="stop-color:#00669B"
         id="stop111" />
    </radialGradient>
    <radialGradient
       inkscape:collect="always"
       xlink:href="#SVGID_7_"
       id="radialGradient3211"
       gradientUnits="userSpaceOnUse"
       gradientTransform="translate(-1.2275,-2.71)"
       cx="265.28711"
       cy="419.52051"
       r="75.261902" />
    <radialGradient
       id="SVGID_7_"
       cx="265.28711"
       cy="419.52051"
       r="75.261902"
       gradientTransform="translate(-1.2275,-2.71)"
       gradientUnits="userSpaceOnUse">
      <stop
         offset="0"
         style="stop-color:#FFFFFF"
         id="stop116" />
      <stop
         offset="0.15"
         style="stop-color:#FFFFFF"
         id="stop118" />
      <stop
         offset="1"
         style="stop-color:#00669B"
         id="stop120" />
    </radialGradient>
    <radialGradient
       inkscape:collect="always"
       xlink:href="#SVGID_8_"
       id="radialGradient3213"
       gradientUnits="userSpaceOnUse"
       gradientTransform="translate(-1.2275,-2.71)"
       cx="265.28711"
       cy="419.52151"
       r="75.260498" />
    <radialGradient
       id="SVGID_8_"
       cx="265.28711"
       cy="419.52151"
       r="75.260498"
       gradientTransform="translate(-1.2275,-2.71)"
       gradientUnits="userSpaceOnUse">
      <stop
         offset="0"
         style="stop-color:#FFFFFF"
         id="stop125" />
      <stop
         offset="0.15"
         style="stop-color:#FFFFFF"
         id="stop127" />
      <stop
         offset="1"
         style="stop-color:#00669B"
         id="stop129" />
    </radialGradient>
    <radialGradient
       inkscape:collect="always"
       xlink:href="#SVGID_9_"
       id="radialGradient3215"
       gradientUnits="userSpaceOnUse"
       gradientTransform="translate(-1.2275,-2.71)"
       cx="265.2861"
       cy="419.52151"
       r="75.260498" />
    <radialGradient
       id="SVGID_9_"
       cx="265.2861"
       cy="419.52151"
       r="75.260498"
       gradientTransform="translate(-1.2275,-2.71)"
       gradientUnits="userSpaceOnUse">
      <stop
         offset="0"
         style="stop-color:#FFFFFF"
         id="stop134" />
      <stop
         offset="0.15"
         style="stop-color:#FFFFFF"
         id="stop136" />
      <stop
         offset="1"
         style="stop-color:#00669B"
         id="stop138" />
    </radialGradient>
  </defs>
  <sodipodi:namedview
     id="base"
     pagecolor="#ffffff"
     bordercolor="#666666"
     borderopacity="1.0"
     inkscape:pageopacity="0.0"
     inkscape:pageshadow="2"
     inkscape:zoom="0.77472527"
     inkscape:cx="320"
     inkscape:cy="240"
     inkscape:current-layer="layer1"
     inkscape:document-units="px"
     showgrid="false"
     inkscape:window-width="978"
     inkscape:window-height="771"
     inkscape:window-x="225"
     inkscape:window-y="225"
     inkscape:window-maximized="0" />
  <metadata
     id="metadata3444">
    <rdf:RDF>
      <cc:Work
         rdf:about="">
        <dc:format>image/svg+xml</dc:format>
        <dc:type
           rdf:resource="http://purl.org/dc/dcmitype/StillImage" />
        <dc:title></dc:title>
      </cc:Work>
    </rdf:RDF>
  </metadata>
  <g
     id="layer1"
     inkscape:label="Layer 1"
     inkscape:groupmode="layer"
     transform="translate(0,-160)">
    <g
       transform="matrix(4.4599118,0,0,4.4778865,-930.6721,-1613.7391)"
       id="g51">
      <radialGradient
         id="radialGradient3349"
         cx="265.28711"
         cy="419.52051"
         r="75.262001"
         gradientTransform="translate(-1.2275,-2.71)"
         gradientUnits="userSpaceOnUse">
        <stop
           offset="0"
           style="stop-color:#00A2E5"
           id="stop3351" />
        <stop
           offset="0.09"
           style="stop-color:#00A2E5"
           id="stop3353" />
        <stop
           offset="0.1892"
           style="stop-color:#0096D7"
           id="stop3355" />
        <stop
           offset="0.3752"
           style="stop-color:#007CBB"
           id="stop3357" />
        <stop
           offset="0.626"
           style="stop-color:#005692"
           id="stop3359" />
        <stop
           offset="0.72"
           style="stop-color:#004883"
           id="stop3361" />
        <stop
           offset="1"
           style="stop-color:#004883"
           id="stop3363" />
      </radialGradient>
      <rect
         x="208.996"
         y="396.11801"
         width="72"
         height="72"
         id="rect68"
         style="fill:url(#radialGradient3199)" />
      <radialGradient
         id="radialGradient3366"
         cx="265.28711"
         cy="419.52151"
         r="75.260696"
         gradientTransform="translate(-1.2275,-2.71)"
         gradientUnits="userSpaceOnUse">
        <stop
           offset="0"
           style="stop-color:#FFFFFF"
           id="stop3368" />
        <stop
           offset="0.15"
           style="stop-color:#FFFFFF"
           id="stop3370" />
        <stop
           offset="1"
           style="stop-color:#00669B"
           id="stop3372" />
      </radialGradient>
      <path
         d="m 235.554,456.049 c -0.984,1.953 -2.455,3.447 -4.234,4.515 l -5.611,7.554 h 2.133 l 7.797,-10.971 c -0.054,-0.355 -0.089,-0.717 -0.085,-1.098 z"
         id="path77"
         style="fill:url(#radialGradient3201)"
         inkscape:connector-curvature="0" />
      <radialGradient
         id="radialGradient3375"
         cx="265.28711"
         cy="419.5264"
         r="75.257401"
         gradientTransform="translate(-1.2275,-2.71)"
         gradientUnits="userSpaceOnUse">
        <stop
           offset="0"
           style="stop-color:#FFFFFF"
           id="stop3377" />
        <stop
           offset="0.15"
           style="stop-color:#FFFFFF"
           id="stop3379" />
        <stop
           offset="1"
           style="stop-color:#00669B"
           id="stop3381" />
      </radialGradient>
      <polygon
         points="214.496,446.355 214.496,444.512 208.996,447.61 208.996,449.608 "
         id="polygon86"
         style="fill:url(#radialGradient3203)" />
      <radialGradient
         id="radialGradient3384"
         cx="265.28711"
         cy="419.5195"
         r="75.262299"
         gradientTransform="translate(-1.2275,-2.71)"
         gradientUnits="userSpaceOnUse">
        <stop
           offset="0"
           style="stop-color:#FFFFFF"
           id="stop3386" />
        <stop
           offset="0.15"
           style="stop-color:#FFFFFF"
           id="stop3388" />
        <stop
           offset="1"
           style="stop-color:#00669B"
           id="stop3390" />
      </radialGradient>
      <polygon
         points="214.496,460.241 208.996,465.09 208.996,467.715 214.541,462.617 214.496,462.617 "
         id="polygon95"
         style="fill:url(#radialGradient3205)" />
      <radialGradient
         id="radialGradient3393"
         cx="265.28711"
         cy="419.52051"
         r="75.261803"
         gradientTransform="translate(-1.2275,-2.71)"
         gradientUnits="userSpaceOnUse">
        <stop
           offset="0"
           style="stop-color:#FFFFFF"
           id="stop3395" />
        <stop
           offset="0.15"
           style="stop-color:#FFFFFF"
           id="stop3397" />
        <stop
           offset="1"
           style="stop-color:#00669B"
           id="stop3399" />
      </radialGradient>
      <path
         d="m 244.146,462.988 c -0.484,0 -0.952,-0.032 -1.409,-0.082 l -2.386,5.211 h 1.723 l 2.225,-5.14 c -0.051,0.002 -0.101,0.011 -0.153,0.011 z"
         id="path104"
         style="fill:url(#radialGradient3207)"
         inkscape:connector-curvature="0" />
      <radialGradient
         id="radialGradient3402"
         cx="265.28711"
         cy="419.52051"
         r="75.262001"
         gradientTransform="translate(-1.2275,-2.71)"
         gradientUnits="userSpaceOnUse">
        <stop
           offset="0"
           style="stop-color:#FFFFFF"
           id="stop3404" />
        <stop
           offset="0.15"
           style="stop-color:#FFFFFF"
           id="stop3406" />
        <stop
           offset="1"
           style="stop-color:#00669B"
           id="stop3408" />
      </radialGradient>
      <path
         d="m 280.996,400.969 -13.574,12.484 c -0.012,-0.012 -0.023,-0.02 -0.035,-0.029 -0.107,-0.105 -0.219,-0.207 -0.336,-0.303 l 12.629,-17.003 h -1.156 l -11.877,16.71 c -0.139,-0.09 -0.281,-0.172 -0.428,-0.246 l 7.537,-16.464 h -0.957 l -7.037,16.261 c -0.154,-0.059 -0.311,-0.109 -0.471,-0.152 l 3.602,-16.109 h -0.863 l -3.227,16.007 c -0.162,-0.027 -0.326,-0.043 -0.492,-0.051 l 0.166,-15.957 h -0.832 l 0.166,15.957 c -0.166,0.008 -0.33,0.023 -0.49,0.051 l -3.229,-16.007 h -0.861 l 3.602,16.109 c -0.16,0.043 -0.318,0.094 -0.471,0.152 l -7.037,-16.261 h -0.957 l 7.537,16.464 c -0.146,0.074 -0.291,0.156 -0.428,0.246 L 249.6,396.118 h -1.156 l 12.627,17.003 c -0.127,0.105 -0.25,0.211 -0.367,0.328 l -18.852,-17.332 h -1.564 l 20.083,17.707 c -0.064,0.078 -0.121,0.164 -0.18,0.248 -0.029,0.043 -0.063,0.082 -0.092,0.127 l -0.018,0.023 -30.62,-18.105 h -2.531 l 32.901,18.539 c -0.029,0.059 -0.053,0.123 -0.08,0.184 -0.033,0.072 -0.066,0.145 -0.096,0.217 -0.008,0.02 -0.018,0.035 -0.023,0.053 l -50.635,-17.039 v 1.691 l 50.481,15.82 c -0.012,0.047 -0.02,0.096 -0.029,0.143 -0.02,0.082 -0.037,0.162 -0.053,0.246 -0.004,0.031 -0.016,0.064 -0.02,0.096 l -50.379,-5.828 v 1.566 l 50.329,4.758 c -0.006,0.082 -0.014,0.164 -0.014,0.246 0,0.086 0.008,0.164 0.014,0.246 l -50.329,4.762 v 1.566 l 50.379,-5.828 c 0.004,0.033 0.016,0.064 0.02,0.098 0.016,0.082 0.033,0.162 0.053,0.242 0.01,0.047 0.018,0.096 0.029,0.141 l -50.481,15.822 v 1.695 l 50.635,-17.041 c 0.008,0.02 0.018,0.039 0.025,0.059 0.027,0.068 0.059,0.133 0.088,0.199 0.029,0.064 0.053,0.131 0.086,0.195 l -34.642,19.521 c 0.754,0.057 1.452,0.162 2.126,0.289 l 32.766,-19.381 c 0.004,0.008 0.01,0.014 0.014,0.02 0.031,0.047 0.064,0.09 0.098,0.135 0.059,0.084 0.113,0.17 0.178,0.248 l -25.909,22.842 c 0.266,0.318 0.514,0.645 0.733,0.986 l 25.509,-23.457 c 0.004,0.006 0.008,0.008 0.012,0.012 0.113,0.113 0.232,0.219 0.355,0.32 l -15.307,20.613 c 0.072,-0.004 0.139,-0.012 0.213,-0.016 0.373,-0.012 0.725,-0.01 1.07,0 l 14.43,-20.305 c 0.137,0.09 0.279,0.172 0.428,0.246 l -11.115,24.279 v 0.764 c -0.107,-0.049 -0.193,-0.082 -0.291,-0.125 l -2.281,4.979 0.852,1.021 13.291,-30.715 c 0.154,0.059 0.311,0.109 0.471,0.152 l -3.805,17.027 h 0.881 l 3.412,-16.926 c 0.162,0.027 0.326,0.043 0.492,0.051 l -0.176,16.875 h 0.85 l -0.176,-16.875 c 0.166,-0.008 0.33,-0.023 0.492,-0.051 l 3.424,16.98 c 0.313,0.025 0.613,0.059 0.906,0.102 l -3.842,-17.184 c 0.16,-0.043 0.316,-0.094 0.469,-0.152 l 15.238,35.208 v -3.127 l -14.781,-32.284 c 0.148,-0.074 0.291,-0.156 0.428,-0.246 l 14.354,20.195 v -1.707 L 267.049,420.5 c 0.129,-0.102 0.252,-0.211 0.369,-0.328 l 13.578,12.484 v -1.18 l -13.246,-11.68 c 0.066,-0.078 0.125,-0.166 0.186,-0.252 0.027,-0.041 0.059,-0.078 0.086,-0.119 0.006,-0.01 0.014,-0.018 0.02,-0.027 l 12.955,7.66 v -0.934 l -12.707,-7.16 c 0.031,-0.061 0.055,-0.125 0.086,-0.189 0.029,-0.064 0.061,-0.129 0.088,-0.197 0.008,-0.021 0.02,-0.041 0.027,-0.063 l 12.506,4.207 v -0.813 l -12.352,-3.871 c 0.014,-0.049 0.02,-0.1 0.031,-0.148 0.02,-0.08 0.035,-0.158 0.051,-0.238 0.004,-0.031 0.016,-0.064 0.02,-0.098 l 12.25,1.418 V 418.21 L 268.8,417.058 c 0.004,-0.082 0.012,-0.164 0.012,-0.25 0,-0.082 -0.008,-0.16 -0.012,-0.242 l 12.197,-1.156 v -0.758 l -12.248,1.414 c -0.006,-0.037 -0.018,-0.07 -0.023,-0.107 -0.014,-0.08 -0.033,-0.158 -0.051,-0.236 -0.01,-0.045 -0.018,-0.092 -0.029,-0.137 l 12.352,-3.871 v -0.813 l -12.504,4.207 c -0.008,-0.021 -0.02,-0.041 -0.027,-0.063 -0.027,-0.068 -0.059,-0.135 -0.09,-0.201 -0.027,-0.063 -0.053,-0.127 -0.084,-0.189 l 12.705,-7.156 v -0.938 l -12.953,7.66 c -0.008,-0.01 -0.016,-0.02 -0.023,-0.031 -0.025,-0.039 -0.055,-0.074 -0.082,-0.111 -0.061,-0.086 -0.117,-0.174 -0.186,-0.256 l 13.244,-11.676 v -1.179 z"
         id="path113"
         style="fill:url(#radialGradient3209)"
         inkscape:connector-curvature="0" />
      <radialGradient
         id="radialGradient3411"
         cx="265.28711"
         cy="419.52051"
         r="75.261902"
         gradientTransform="translate(-1.2275,-2.71)"
         gradientUnits="userSpaceOnUse">
        <stop
           offset="0"
           style="stop-color:#FFFFFF"
           id="stop3413" />
        <stop
           offset="0.15"
           style="stop-color:#FFFFFF"
           id="stop3415" />
        <stop
           offset="1"
           style="stop-color:#00669B"
           id="stop3417" />
      </radialGradient>
      <path
         d="m 272.807,461.203 1.395,6.914 h 1.531 l -1.729,-7.738 c -0.356,0.304 -0.754,0.578 -1.197,0.824 z"
         id="path122"
         style="fill:url(#radialGradient3211)"
         inkscape:connector-curvature="0" />
      <radialGradient
         id="radialGradient3420"
         cx="265.28711"
         cy="419.52151"
         r="75.260498"
         gradientTransform="translate(-1.2275,-2.71)"
         gradientUnits="userSpaceOnUse">
        <stop
           offset="0"
           style="stop-color:#FFFFFF"
           id="stop3422" />
        <stop
           offset="0.15"
           style="stop-color:#FFFFFF"
           id="stop3424" />
        <stop
           offset="1"
           style="stop-color:#00669B"
           id="stop3426" />
      </radialGradient>
      <polygon
         points="255.027,462.617 253.617,462.617 252.387,468.117 253.918,468.117 "
         id="polygon131"
         style="fill:url(#radialGradient3213)" />
      <radialGradient
         id="radialGradient3429"
         cx="265.2861"
         cy="419.52151"
         r="75.260498"
         gradientTransform="translate(-1.2275,-2.71)"
         gradientUnits="userSpaceOnUse">
        <stop
           offset="0"
           style="stop-color:#FFFFFF"
           id="stop3431" />
        <stop
           offset="0.15"
           style="stop-color:#FFFFFF"
           id="stop3433" />
        <stop
           offset="1"
           style="stop-color:#00669B"
           id="stop3435" />
      </radialGradient>
      <polygon
         points="264.738,462.617 263.381,462.617 263.322,468.117 264.795,468.117 "
         id="polygon140"
         style="fill:url(#radialGradient3215)" />
      <path
         d="m 256.158,438.422 h 10.795 c 4.822,0 7.943,1.973 7.943,5.496 0,3.769 -3.154,4.874 -4.684,5.563 v 0.07 c 2.813,0.139 6.031,2.316 6.031,5.668 0,4.427 -3.219,7.397 -10.092,7.397 h -15.094 l -1.162,-1.375 c -1.664,1.166 -3.682,1.746 -5.75,1.746 -5.023,0 -8.637,-2.682 -8.592,-6.939 -2.27,4.5 -7.109,6.568 -12.387,6.568 h -8.672 v -24.195 h 8.949 c 9.719,0 13.467,5.564 13.467,11.407 0,0.939 -0.076,1.82 -0.215,2.648 0.887,-1.297 2.215,-2.354 3.727,-3.18 -0.576,-0.9 -1.027,-1.977 -1.027,-3.251 0,-1.695 1.104,-4.779 6.58,-4.949 1.663,-0.053 2.938,0.09 4.813,0.521 v 4.463 c -1.002,-0.467 -1.545,-0.611 -2.555,-0.594 -0.994,0.014 -1.682,0.221 -2.114,0.954 -0.527,0.895 0.123,2.115 1.033,3.219 l 3.625,4.348 c 0.406,-0.66 0.645,-1.73 0.645,-2.865 h 4.734 v -12.72 z m 0,21.978 v -8.019 c -0.146,1.994 -0.867,4.187 -2.137,5.521 l 2.137,2.498 z M 229.38,449.862 c 0,-4.169 -2.547,-6.911 -5.936,-6.911 h -1.625 v 15.139 h 1.383 c 4.2,0 6.178,-3.355 6.178,-8.228 z m 34.102,-1.832 h 1.281 c 2.674,0 3.611,-1.52 3.611,-3.112 0,-2.035 -1.77,-2.586 -2.846,-2.586 h -2.047 v 5.698 z m 5.584,7.053 c 0,-1.902 -0.969,-3.146 -3.502,-3.146 h -2.082 v 6.776 h 1.387 c 2.569,0 4.197,-1.279 4.197,-3.63 z m -22.1,2.665 -3.805,-4.569 c -0.918,0.668 -1.455,1.592 -1.498,2.612 -0.078,1.799 1.344,2.76 2.709,2.76 0.932,0 1.879,-0.297 2.594,-0.803 z"
         id="path142"
         inkscape:connector-curvature="0"
         style="fill:#ffffff" />
    </g>
  </g>
</svg>
