<?xml version="1.0" encoding="utf-8"?>
<!-- Generator: Adobe Illustrator 15.1.0, SVG Export Plug-In . SVG Version: 6.00 Build 0)  -->
<!DOCTYPE svg PUBLIC "-//W3C//DTD SVG 1.1//EN" "http://www.w3.org/Graphics/SVG/1.1/DTD/svg11.dtd">
<svg version="1.1" id="Layer_1" xmlns="http://www.w3.org/2000/svg" xmlns:xlink="http://www.w3.org/1999/xlink" x="0px" y="0px"
	 width="350px" height="350px" viewBox="0 0 350 350" enable-background="new 0 0 350 350" xml:space="preserve">
<g>
	<g>
		<g>
			<path fill="#010101" d="M33.259,166.517c0,76.352,66.24,138.467,147.657,138.467c81.418,0,147.658-62.115,147.658-138.467
				c0-76.347-66.24-138.463-147.658-138.463C99.499,28.054,33.259,90.169,33.259,166.517z"/>
			
				<linearGradient id="SVGID_1_" gradientUnits="userSpaceOnUse" x1="-305.917" y1="617.9375" x2="-304.0388" y2="617.9375" gradientTransform="matrix(65.4447 49.9626 49.9626 -65.4447 -10733.5 55844.8125)">
				<stop  offset="0" style="stop-color:#F0A61F"/>
				<stop  offset="1" style="stop-color:#E77224"/>
			</linearGradient>
			<ellipse fill="url(#SVGID_1_)" cx="180.916" cy="166.517" rx="133.119" ry="123.93"/>
		</g>
		<path fill="#FFFFFF" d="M129.502,81.679c8.695-0.627-20.038,17.899-37.208,52.544c-17.165,34.639-15.54,65.814-20.111,56.605
			c-9.367-18.821-9.239-44.507,2.292-67.749C86.638,98.505,108.276,83.218,129.502,81.679z"/>
		<path fill="#CB5527" d="M289.634,153.785c-3.102-9.388-8.907,29.747-35.393,64.737c-26.483,34.999-57.626,48.651-46.668,48.901
			c22.382,0.495,47.392-12.298,65.171-35.785C291.531,206.814,297.198,176.716,289.634,153.785z"/>
	</g>
	
		<radialGradient id="SVGID_2_" cx="3746.8525" cy="-2479.5488" r="35.8289" gradientTransform="matrix(-0.8454 0.1186 0.2237 0.4137 3898.8691 648.6377)" gradientUnits="userSpaceOnUse">
		<stop  offset="0" style="stop-color:#7BB242"/>
		<stop  offset="1" style="stop-color:#406C33"/>
	</radialGradient>
	<path fill="url(#SVGID_2_)" d="M151.864,80.066c14.408-3.637,27.207-3.986,39.201,1.507c-8.582-8.946,2.37-13.723,14.831-18.768
		c-16.212,3.804-29.718-1.425-29.252-11.963c-4.989,11.333-15.167,14.074-33.193,9.642c5.228,4.783,15.907,6.772,16.436,10.884
		C160.318,74.709,151.864,80.066,151.864,80.066z"/>
</g>
</svg>
