<?xml version="1.0" encoding="utf-8"?>
<!-- Generator: Adobe Illustrator 15.1.0, SVG Export Plug-In . SVG Version: 6.00 Build 0)  -->
<!DOCTYPE svg PUBLIC "-//W3C//DTD SVG 1.1//EN" "http://www.w3.org/Graphics/SVG/1.1/DTD/svg11.dtd">
<svg version="1.1" id="Layer_1" xmlns="http://www.w3.org/2000/svg" xmlns:xlink="http://www.w3.org/1999/xlink" x="0px" y="0px"
	 width="350px" height="350px" viewBox="0 0 350 350" enable-background="new 0 0 350 350" xml:space="preserve">
<g>
	<path fill="#010101" d="M304.779,75.09c-6.008,3.397-9.487,9.54-9.551,16.852V91.94c-0.044,5.137-2.155,10.5-6.27,15.934
		c-2.884,3.813-8.251,6.153-16.414,7.159c-2.48,0.303-5.482,0.023-8.664-0.278l-1.065-0.101l0,0c0-0.003-2.652-0.402-2.652-0.402
		c-0.479-0.073-0.874-0.066-1.318-0.11c-6.753-1.546-13.219,0.36-17.764,5.229c-5.348,5.734-7.257,15.081-4.757,23.261
		c2.343,7.66,8.014,13.052,15.563,14.793c23.649,5.456,42.679,1.343,61.7-13.328c14.973-11.554,22.953-34.066,23.097-50.333
		c0.069-7.729-3.643-14.368-10.18-18.221C319.799,71.594,311.27,71.415,304.779,75.09z"/>
	<g>
		<g>
			
				<linearGradient id="SVGID_1_" gradientUnits="userSpaceOnUse" x1="-305.981" y1="617.8203" x2="-304.1985" y2="617.8203" gradientTransform="matrix(65.4447 49.9626 49.9626 -65.4447 -10733.5 55844.8125)">
				<stop  offset="0" style="stop-color:#76488F"/>
				<stop  offset="1" style="stop-color:#5F2A78"/>
			</linearGradient>
			<ellipse fill="url(#SVGID_1_)" cx="167.795" cy="168.533" rx="130.576" ry="109.432"/>
			<path fill="#010101" d="M298.371,168.533h-6.239c-0.002,14.1-3.396,27.504-9.595,39.785
				c-9.282,18.409-24.926,34.271-44.809,45.528c-19.877,11.256-43.952,17.882-69.935,17.879
				c-34.642,0.009-65.896-11.786-88.324-30.594c-11.217-9.401-20.229-20.539-26.422-32.813c-6.194-12.281-9.591-25.686-9.591-39.785
				c0-14.101,3.397-27.504,9.591-39.786c9.286-18.409,24.932-34.272,44.812-45.528c19.879-11.256,43.951-17.882,69.934-17.879
				c34.645-0.007,65.895,11.786,88.327,30.594c11.217,9.401,20.224,20.54,26.416,32.814c6.198,12.279,9.593,25.685,9.595,39.786
				H298.371h6.239c0-16.121-3.91-31.502-10.93-45.407c-10.536-20.869-28.007-38.423-49.804-50.767
				C222.07,60.018,195.9,52.863,167.794,52.862c-37.473,0.007-71.508,12.709-96.338,33.508
				c-12.413,10.403-22.526,22.846-29.547,36.757c-7.023,13.904-10.933,29.286-10.929,45.407
				c-0.004,16.118,3.906,31.502,10.929,45.406c10.539,20.867,28.009,38.422,49.806,50.766c21.801,12.344,47.977,19.496,76.08,19.499
				c37.476-0.008,71.511-12.71,96.341-33.509c12.412-10.402,22.522-22.847,29.546-36.756c7.02-13.904,10.93-29.288,10.93-45.406
				H298.371z"/>
		</g>
		<path fill="#FFFFFF" d="M145.303,86.503c8.317,1.985-24.033,10.821-50.332,38.151c-26.29,27.329-33.98,56.966-35.537,47.003
			c-3.2-20.372,4.512-44.36,22.163-62.69C100.237,89.574,124.991,81.672,145.303,86.503z"/>
		<path fill="#32154C" d="M278.58,174.225c-0.129-9.698-17.122,25.193-52.238,50.094c-35.11,24.908-68.272,28.475-58.1,31.948
			c20.789,7.076,47.963,2.501,71.531-14.215C264.687,224.386,278.879,197.908,278.58,174.225z"/>
	</g>
	<path fill="#3A1E56" d="M275.046,138.318c0,10.728-8.635,19.425-19.292,19.425c-10.651,0-19.289-8.698-19.289-19.425
		c0-10.727,8.638-19.424,19.289-19.424C266.411,118.895,275.046,127.591,275.046,138.318z"/>
	<g>
		<path fill="#7BB242" d="M253.963,148.438c20.481,4.725,37.032,1.44,53.989-11.645c11.739-9.054,19.378-28.285,19.51-43.112
			c0.127-14.826-22.879-16.536-23.009-1.661c-0.071,7.943-3.422,15.187-8.138,21.422c-5.372,7.096-14.271,9.715-22.639,10.748
			c-3.827,0.466-7.887,0.001-11.709-0.349c-1.238-0.113-6.935-1.118-5.163-0.707C242.453,119.82,239.462,145.094,253.963,148.438z"
			/>
		<path fill="#010101" d="M253.963,148.438l-0.778,3.371c6.065,1.399,11.86,2.136,17.479,2.136
			c7.012,0.001,13.745-1.161,20.271-3.556c6.529-2.393,12.849-6.01,19.132-10.859c6.507-5.039,11.584-12.561,15.163-20.748
			c3.56-8.199,5.613-17.081,5.693-25.068v-0.155c0-2.411-0.505-4.648-1.416-6.59c-1.363-2.927-3.606-5.144-6.153-6.586
			c-2.556-1.443-5.426-2.163-8.276-2.163c-3.402,0-6.862,1.032-9.586,3.384c-2.737,2.333-4.492,6.041-4.498,10.387
			c-0.056,6.962-3.011,13.512-7.437,19.363c-2.249,2.969-5.257,5.05-8.787,6.552c-3.523,1.496-7.536,2.363-11.515,2.85
			c-0.982,0.12-2.021,0.172-3.094,0.172c-2.489,0.003-5.169-0.28-7.878-0.535c-0.095-0.005-0.544-0.064-1.049-0.141
			c-0.775-0.113-1.764-0.272-2.6-0.404c-0.42-0.064-0.798-0.124-1.106-0.168l-0.425-0.059l-0.219-0.023
			c-0.088-0.007-0.162-0.017-0.395-0.021c-0.118,0.005-0.237-0.006-0.599,0.05c-0.196,0.043-0.444,0.064-0.985,0.326
			c-0.272,0.143-0.646,0.353-1.073,0.846c-0.425,0.466-0.842,1.356-0.825,2.242c0,0.744,0.237,1.335,0.453,1.713
			c0.444,0.734,0.783,0.931,0.999,1.104c0.399,0.277,0.555,0.32,0.687,0.383c0.213,0.087,0.296,0.109,0.375,0.136
			c0.219,0.064,0.326,0.087,0.508,0.13l1.56-6.744c-1.12-0.256-2.222-0.386-3.292-0.386c-2.139-0.005-4.153,0.527-5.869,1.476
			c-2.589,1.422-4.451,3.678-5.649,6.186c-1.2,2.519-1.782,5.329-1.785,8.167c0.003,3.479,0.88,7.043,2.87,10.109
			c1.97,3.056,5.18,5.558,9.321,6.495L253.963,148.438l0.775-3.372c-2.384-0.568-3.924-1.796-5.08-3.529
			c-1.135-1.73-1.75-4.03-1.744-6.332c-0.014-2.499,0.734-4.937,1.891-6.513c0.573-0.793,1.233-1.38,1.95-1.773
			c0.724-0.392,1.519-0.62,2.542-0.625c0.516,0,1.09,0.065,1.732,0.212l1.56-6.744l-0.104-0.023l-0.02-0.005l-0.624,2.34
			l0.809-2.282l-0.185-0.058l-0.624,2.34l0.809-2.282l-1.106,3.128l1.551-2.931c-0.271-0.138-0.367-0.166-0.444-0.197l-1.106,3.128
			l1.551-2.931l-1.608,3.035l2.271-2.58c-0.342-0.289-0.526-0.378-0.662-0.456l-1.608,3.035l2.271-2.58l-2.284,2.594l2.919-1.848
			c-0.248-0.388-0.466-0.595-0.635-0.747l-2.284,2.594l2.919-1.848l-2.922,1.849h3.46c-0.003-0.838-0.298-1.471-0.538-1.849
			l-2.922,1.849h3.46h-3.46l2.635,2.242c0.425-0.468,0.839-1.357,0.825-2.242h-3.46l2.635,2.242l-2.635-2.24l1.672,3.025
			c0.254-0.143,0.591-0.356,0.963-0.785l-2.635-2.24l1.672,3.025l-1.664-3.018l0.772,3.36c0.19-0.049,0.442-0.102,0.892-0.342
			l-1.664-3.018l0.772,3.36l-0.767-3.323l0.237,3.403c0.11-0.011,0.251-0.02,0.529-0.08l-0.767-3.323l0.237,3.403l-0.229-3.297
			v3.304l0.229-0.007l-0.229-3.297v3.304v-2.472l-0.262,2.459c0.014,0,0.003,0.01,0.262,0.013v-2.472l-0.262,2.459
			c0.027,0.003,0.411,0.056,0.85,0.125c0.679,0.106,1.59,0.25,2.429,0.38c0.86,0.13,1.575,0.242,2.149,0.298
			c2.627,0.238,5.514,0.559,8.505,0.56c1.291,0,2.607-0.061,3.935-0.223c4.394-0.545,9.01-1.502,13.376-3.351
			c4.352-1.838,8.477-4.615,11.604-8.744c5.012-6.616,8.753-14.554,8.836-23.479c0.058-2.673,0.905-4.134,2.111-5.219
			c1.217-1.066,3.044-1.696,5.055-1.694c2.232-0.011,4.575,0.796,6.204,2.204c0.822,0.703,1.484,1.546,1.959,2.555
			c0.467,1.008,0.759,2.195,0.759,3.663v0.101c-0.05,6.827-1.885,14.976-5.113,22.36c-3.209,7.398-7.82,14.02-13.044,18.033
			c-5.834,4.498-11.521,7.727-17.291,9.84c-5.768,2.115-11.629,3.128-17.888,3.132c-5.014,0-10.281-0.658-15.925-1.959
			L253.963,148.438z"/>
	</g>
</g>
</svg>
