<?xml version="1.0" encoding="utf-8"?>
<!-- Generator: Adobe Illustrator 15.1.0, SVG Export Plug-In . SVG Version: 6.00 Build 0)  -->
<!DOCTYPE svg PUBLIC "-//W3C//DTD SVG 1.1//EN" "http://www.w3.org/Graphics/SVG/1.1/DTD/svg11.dtd">
<svg version="1.1" id="Layer_1" xmlns="http://www.w3.org/2000/svg" xmlns:xlink="http://www.w3.org/1999/xlink" x="0px" y="0px"
	 width="350px" height="350px" viewBox="0 0 350 350" enable-background="new 0 0 350 350" xml:space="preserve">
<g>
	<path fill="#010101" d="M145.805,28.347c-26.648,2.102-45.761,8.658-59.271,15.853c0.055-3.925,0.11-7.86,0.11-7.86H30.742
		l-0.223,124.431l52.838-0.713l2.481-11.917c0.582-2.791,3.308-10.827,8.867-14.439c3.304-2.148,7.597-2.612,13.122-1.419
		c21.906,4.74,42.9,5.954,60.377,5.709c-13.191,11.184-28.287,25.261-44.304,42.658c-35.904,38.996-44.372,69.498-44.372,89.596
		c0,15.775,5.219,25.145,6.481,27.176l4.417,7.111l139.351-0.496l-0.571-15.496c-0.034-0.9-2.825-90.49,38.691-148.861
		c22.79-32.039,55.814-71.256,56.146-71.648l12.753-15.125l-48.459-22.026l-7.205,5.71c-7.212,5.716-18.78,11.614-23.852,10.939
		c-3.642-0.485-12.654-2.678-22.197-4.997C207.258,35.768,169.149,26.506,145.805,28.347z"/>
	<path fill="#ED2224" d="M45.704,51.328l-0.167,94.249l25.598-0.344c0,0,6.558-34.801,39.861-27.6
		c59.1,12.782,112.147-0.981,112.147-0.981s-39.928,21.701-88.218,74.15c-58.287,63.312-36.181,98.709-36.181,98.709l115.485-0.41
		c0,0-3.646-94.701,41.453-158.111c23.432-32.938,56.905-72.625,56.905-72.625l-22.113-10.052c0,0-20.095,16.083-35.172,14.072
		c-15.077-2.011-78.648-21.436-108.319-19.097c-58.609,4.626-75.889,32.494-75.889,32.494l0.348-24.454H45.704z"/>
</g>
</svg>
