<?xml version="1.0" encoding="utf-8"?>
<!-- Generator: Adobe Illustrator 15.1.0, SVG Export Plug-In . SVG Version: 6.00 Build 0)  -->
<!DOCTYPE svg PUBLIC "-//W3C//DTD SVG 1.1//EN" "http://www.w3.org/Graphics/SVG/1.1/DTD/svg11.dtd">
<svg version="1.1" id="Layer_1" xmlns="http://www.w3.org/2000/svg" xmlns:xlink="http://www.w3.org/1999/xlink" x="0px" y="0px"
	 width="320px" height="320px" viewBox="0 0 320 320" enable-background="new 0 0 320 320" xml:space="preserve">
<g>
	<path d="M227.611,309.389h-10.205h-10.204H97.3h-9.378h-9.386l-2.365-9.572l-2.364-9.544
		c-1.781-7.119-16.335-70.669,18.397-109.236c9.475-10.523,21.954-22.81,33.707-33.938c-0.575-0.314-1.138-0.646-1.701-0.975
		c-17.184-10.363-27.186-11.907-31.615-11.907c-0.491,0-0.916,0.014-1.302,0.051c-1.602,3.643-3.853,11.314-4.543,19.641
		l-0.964,11.722l-0.962,11.696l-11.127,0.015l-11.153,0.009H37.496H25.341H13.188v-12.816v-12.801V43.18V30.364V17.549h12.154
		h12.156h22.254h13.217h13.204l-0.138,1.768c11.941-3.59,23.957-5.412,35.922-5.412c8.449,0,16.831,0.926,24.911,2.746
		c19.189,4.289,34.091,8.802,46.075,12.422c12.174,3.694,21.537,6.533,26.891,6.533c0.557,0,1.053-0.026,1.548-0.105
		c13.005-2.283,25.783-8.278,25.907-8.329l4.659-2.244l4.702-2.258l4.808,2.021l4.821,2.017l13.951,5.887l14.085,5.954l14.078,5.953
		l-8.572,13.189l-8.572,13.184c-1.929,3.01-47.876,75.275-51.462,128.149c-4.128,60.943-8.197,86.473-8.647,89.174l-1.762,10.584
		L227.611,309.389L227.611,309.389z"/>
	<path fill="#FFFFFF" d="M217.406,296.574h-10.204h-109.9H87.93l-2.375-9.553c-0.639-2.561-15.277-63.043,15.464-97.178
		c13.199-14.647,32.832-33.288,49.577-48.605c-7.852-0.743-14.679-2.839-20.375-6.256c-14.741-8.879-27.75-13.576-37.634-13.576
		c-2.955,0-5.583,0.434-7.822,1.307c-3.99,1.53-9.008,16.427-10.121,30.096l-0.963,11.714l-11.147,0.018H37.496H25.345v-12.813
		V43.177V30.364h12.151h22.259h13.213l-0.615,7.734c12.541-5.771,29.805-11.374,49.611-11.374c7.557,0,15.092,0.815,22.374,2.451
		c18.955,4.236,33.721,8.723,45.564,12.313c13.293,4.037,22.891,6.938,29.916,6.938c1.256,0,2.398-0.09,3.48-0.275
		c14.814-2.612,28.827-9.236,28.964-9.303l4.716-2.255l4.818,2.017l13.911,5.873l14.079,5.952l-8.572,13.194
		c-0.486,0.765-49.656,77.123-53.535,134.49c-4.186,61.578-8.334,86.819-8.506,87.877L217.406,296.574L217.406,296.574z"/>
	
		<linearGradient id="SVGID_1_" gradientUnits="userSpaceOnUse" x1="300.3447" y1="-198.7598" x2="300.3447" y2="45.4668" gradientTransform="matrix(1 0 0 -1 -146 85)">
		<stop  offset="0" style="stop-color:#FB7329"/>
		<stop  offset="0.5" style="stop-color:#DD2C00"/>
		<stop  offset="1" style="stop-color:#6E0301"/>
	</linearGradient>
	<path fill="url(#SVGID_1_)" d="M58.359,60.785c0,0,37.559-29.34,83.468-19.072c45.898,10.269,66.764,22.005,83.458,19.072
		c16.698-2.935,31.999-10.27,31.999-10.27l13.912,5.869c0,0-51.475,79.214-55.651,140.825c-4.17,61.615-8.344,86.551-8.344,86.551
		H97.307c0,0-13.909-55.745,12.521-85.081c26.434-29.341,80.68-76.286,80.68-76.286s-34.777,13.201-54.246,1.47
		c-19.479-11.734-40.346-19.069-55.646-13.2c-15.301,5.868-18.083,41.071-18.083,41.071H37.494V43.18h22.257L58.359,60.785z"/>
</g>
</svg>
