<?xml version="1.0" encoding="utf-8"?>
<!-- Generator: Adobe Illustrator 15.1.0, SVG Export Plug-In . SVG Version: 6.00 Build 0)  -->
<!DOCTYPE svg PUBLIC "-//W3C//DTD SVG 1.1//EN" "http://www.w3.org/Graphics/SVG/1.1/DTD/svg11.dtd">
<svg version="1.1" id="Layer_1" xmlns="http://www.w3.org/2000/svg" xmlns:xlink="http://www.w3.org/1999/xlink" x="0px" y="0px"
	 width="320px" height="320px" viewBox="0 0 320 320" enable-background="new 0 0 320 320" xml:space="preserve">
<g>
	<path d="M269.402,322.651H53.222C23.872,322.651,0,298.785,0,269.432V53.237C0,23.879,23.872,0,53.222,0h216.18
		c29.354,0,53.244,23.879,53.244,53.237v216.195C322.646,298.785,298.757,322.651,269.402,322.651L269.402,322.651z"/>
	<linearGradient id="SVGID_1_" gradientUnits="userSpaceOnUse" x1="161.3252" y1="12.1958" x2="161.3252" y2="310.4692">
		<stop  offset="0" style="stop-color:#E7F2C8"/>
		<stop  offset="0.5" style="stop-color:#ABD03D"/>
		<stop  offset="1" style="stop-color:#517A3D"/>
	</linearGradient>
	<path fill="url(#SVGID_1_)" d="M310.463,269.428c0,22.656-18.372,41.041-41.047,41.041H53.222
		c-22.671,0-41.035-18.385-41.035-41.041V53.237c0-22.665,18.364-41.041,41.035-41.041h216.194
		c22.675,0,41.047,18.376,41.047,41.041V269.428z"/>
	<g>
		<linearGradient id="SVGID_2_" gradientUnits="userSpaceOnUse" x1="161.3193" y1="20.3901" x2="161.3193" y2="302.2489">
			<stop  offset="0" style="stop-color:#E7F2C8"/>
			<stop  offset="0.5" style="stop-color:#ABD03D"/>
			<stop  offset="1" style="stop-color:#517A3D"/>
		</linearGradient>
		<path fill="url(#SVGID_2_)" d="M20.394,148.555v120.869c0,18.094,14.729,32.826,32.829,32.826h216.194
			c18.099,0,32.828-14.732,32.828-32.826V148.555c-37.604,17.11-86.9,27.501-140.921,27.501
			C107.308,176.057,58.01,165.665,20.394,148.555z"/>
		<linearGradient id="SVGID_3_" gradientUnits="userSpaceOnUse" x1="161.3193" y1="20.4102" x2="161.3193" y2="302.2432">
			<stop  offset="0" style="stop-color:#FB7329"/>
			<stop  offset="0.5" style="stop-color:#DD2C00"/>
			<stop  offset="1" style="stop-color:#6E0301"/>
		</linearGradient>
		<path fill="url(#SVGID_3_)" d="M269.416,20.41H53.222c-18.099,0-32.829,14.724-32.829,32.827v95.318
			c37.617,17.11,86.914,27.501,140.93,27.501c54.021,0,103.317-10.392,140.921-27.501V53.237
			C302.244,35.134,287.515,20.41,269.416,20.41z"/>
		<linearGradient id="SVGID_4_" gradientUnits="userSpaceOnUse" x1="161.3193" y1="-44.8779" x2="161.3193" y2="176.0567">
			<stop  offset="0" style="stop-color:#E7F2C8"/>
			<stop  offset="0.5" style="stop-color:#ABD03D"/>
			<stop  offset="1" style="stop-color:#517A3D"/>
		</linearGradient>
		<path fill="url(#SVGID_4_)" d="M269.416,20.41H53.222c-18.099,0-32.829,14.724-32.829,32.827v95.318
			c37.617,17.11,86.914,27.501,140.93,27.501c54.021,0,103.317-10.392,140.921-27.501V53.237
			C302.244,35.134,287.515,20.41,269.416,20.41z"/>
	</g>
	<g>
		
			<radialGradient id="SVGID_5_" cx="171.166" cy="-10.1357" r="44.7039" gradientTransform="matrix(3.0632 0 0 3.063 -362.342 191.8673)" gradientUnits="userSpaceOnUse">
			<stop  offset="0" style="stop-color:#519C3D"/>
			<stop  offset="0.2728" style="stop-color:#549E3D"/>
			<stop  offset="0.4698" style="stop-color:#5DA33D"/>
			<stop  offset="0.6429" style="stop-color:#6DAC3D"/>
			<stop  offset="0.8023" style="stop-color:#83B93D"/>
			<stop  offset="0.9509" style="stop-color:#A0CA3D"/>
			<stop  offset="1" style="stop-color:#ABD03D"/>
		</radialGradient>
		<path fill="url(#SVGID_5_)" d="M42.6,157.407l-17.561,3.417l55.213,10.76l-50.551,24.678l56.115-3.895L43.39,229.293
			l53.192-18.289l-60.778,75.979l75.997-60.766l-18.29,53.185l36.923-42.438l-3.904,56.121l24.684-50.552l10.756,55.223
			l10.761-55.223l24.674,50.552l-3.895-56.121l45.932,58.029l-27.303-68.776l75.996,60.766l-60.777-75.979l68.793,27.288
			l-58.027-45.924l56.11,3.895l-50.551-24.678l55.218-10.76l-18.412-3.591c-34.043,11.878-75.021,18.823-119.165,18.823
			C117.37,176.057,76.552,169.178,42.6,157.407z"/>
		
			<linearGradient id="SVGID_6_" gradientUnits="userSpaceOnUse" x1="158.5996" y1="82.3232" x2="547.6797" y2="82.3232" gradientTransform="matrix(0.6897 0 0 0.6897 -81.5847 43.2029)">
			<stop  offset="0" style="stop-color:#E7F2C8"/>
			<stop  offset="0.5" style="stop-color:#ABD03D"/>
			<stop  offset="1" style="stop-color:#517A3D"/>
		</linearGradient>
		<path fill="url(#SVGID_6_)" d="M294.233,125.387l-56.11,3.899l58.027-45.925l-68.793,27.289l60.777-75.989L212.139,95.44
			l27.303-68.785L193.51,84.68l3.895-56.112L172.73,79.12L161.97,23.906L151.213,79.12L126.53,28.568l3.904,56.112L84.502,26.655
			l27.298,68.785L35.804,34.661l60.778,75.989l-68.78-27.289l58.015,45.925l-56.115-3.899l50.551,24.677L42.6,157.407
			c33.952,11.771,74.77,18.649,118.723,18.649c44.145,0,85.122-6.944,119.165-18.823l-36.806-7.169L294.233,125.387z"/>
		<linearGradient id="SVGID_7_" gradientUnits="userSpaceOnUse" x1="161.9766" y1="5.0444" x2="161.9766" y2="146.2578">
			<stop  offset="0" style="stop-color:#E7F2C8"/>
			<stop  offset="0.5" style="stop-color:#ABD03D"/>
			<stop  offset="1" style="stop-color:#517A3D"/>
		</linearGradient>
		<path fill="url(#SVGID_7_)" d="M294.233,125.387l-56.11,3.899l58.027-45.925l-68.793,27.289l60.777-75.989L212.139,95.44
			l27.303-68.785L193.51,84.68l3.895-56.112L172.73,79.12L161.97,23.906L151.213,79.12L126.53,28.568l3.904,56.112L84.502,26.655
			l27.298,68.785L35.804,34.661l60.778,75.989l-68.78-27.289l58.015,45.925l-56.115-3.899l50.551,24.677L42.6,157.407
			c33.952,11.771,74.77,18.649,118.723,18.649c44.145,0,85.122-6.944,119.165-18.823l-36.806-7.169L294.233,125.387z"/>
	</g>
	<g>
		<path fill="#FFFFFF" d="M32.716,86.762V53.237c0-11.311,9.208-20.514,20.506-20.514h216.194c11.312,0,20.52,9.203,20.52,20.514
			v33.525h8.201V53.224c0-15.826-12.873-28.707-28.721-28.707H53.222c-15.835,0-28.726,12.881-28.726,28.707v33.538H32.716z"/>
		<path fill="#FFFFFF" d="M289.936,235.894v33.534c0,11.302-9.208,20.505-20.52,20.505H53.222c-11.298,0-20.506-9.203-20.506-20.505
			v-33.534h-8.219v33.534c0,15.834,12.89,28.711,28.726,28.711h216.194c15.848,0,28.721-12.877,28.721-28.711v-33.534H289.936z"/>
	</g>
</g>
<g>
	<path fill="#FFFFFF" d="M55.438,185.26c4.389,2.701,11.398,5.417,18.52,5.417c7.672,0,11.719-3.743,11.719-9.42
		c0-5.426-3.504-8.519-12.378-12.131c-12.27-5.174-20.376-13.176-20.376-25.827c0-14.858,10.63-26.096,27.94-26.096
		c8.44,0,14.46,1.947,18.841,4.398l-3.73,15.748c-2.845-1.67-8.206-4.12-15.336-4.12c-7.234,0-10.73,3.994-10.73,8.392
		c0,5.547,4.051,8.001,13.693,12.256c13.033,5.69,19.066,13.688,19.066,25.961c0,14.59-9.42,26.989-29.692,26.989
		c-8.436,0-16.772-2.715-20.927-5.43L55.438,185.26z"/>
	<path fill="#FFFFFF" d="M114.086,119.667c5.153-1.032,12.383-1.809,22.571-1.809c10.301,0,17.644,2.32,22.571,6.97
		c4.823,4.398,7.885,11.619,7.885,20.141c0,8.531-2.294,15.891-6.792,20.666c-5.699,6.197-14.131,9.164-23.985,9.164
		c-2.195,0-4.168-0.122-5.704-0.512v31.248h-16.546V119.667z M130.633,159.181c1.418,0.386,3.071,0.507,5.595,0.507
		c8.865,0,14.343-5.287,14.343-14.074c0-8.001-4.71-12.79-13.15-12.79c-3.279,0-5.582,0.269-6.788,0.655V159.181z"/>
	<path fill="#FFFFFF" d="M194.538,118.509v87.026h-16.646v-87.026H194.538z"/>
	<path fill="#FFFFFF" d="M209.024,205.535v-87.026h19.5l15.336,31.89c4.381,9.168,8.653,20.007,12.054,29.826h0.217
		c-0.984-11.493-1.314-23.238-1.314-36.418v-25.297h15.337v87.026h-17.522l-15.779-33.573c-4.381-9.298-9.316-20.536-12.82-30.732
		h-0.438c0.542,11.615,0.768,23.888,0.768,38.092v26.213H209.024z"/>
</g>
</svg>
