<?xml version="1.0" encoding="utf-8"?>
<!-- Generator: Adobe Illustrator 15.1.0, SVG Export Plug-In . SVG Version: 6.00 Build 0)  -->
<!DOCTYPE svg PUBLIC "-//W3C//DTD SVG 1.1//EN" "http://www.w3.org/Graphics/SVG/1.1/DTD/svg11.dtd">
<svg version="1.1" id="Layer_1" xmlns="http://www.w3.org/2000/svg" xmlns:xlink="http://www.w3.org/1999/xlink" x="0px" y="0px"
	 width="320px" height="320px" viewBox="0 0 320 320" enable-background="new 0 0 320 320" xml:space="preserve">
<g>
	<g>
		
			<linearGradient id="SVGID_1_" gradientUnits="userSpaceOnUse" x1="85.1157" y1="-99.6343" x2="111.6108" y2="-99.6343" gradientTransform="matrix(0.8559 0.5172 -0.5172 0.8559 108.2491 100.9294)">
			<stop  offset="0" style="stop-color:#74BF44"/>
			<stop  offset="1" style="stop-color:#007340"/>
		</linearGradient>
		<path fill="url(#SVGID_1_)" d="M224.461,91.283c0,0,23.412-36.86,19.423-50.232c5.77-2.146,10.84-6.442,19.279,0.961
			c7.38,16.191-20.265,49.547-24.424,54.054C233.044,93.709,224.461,91.283,224.461,91.283z"/>
		<g>
			
				<linearGradient id="SVGID_2_" gradientUnits="userSpaceOnUse" x1="91.8506" y1="-37.417" x2="178.6289" y2="-37.417" gradientTransform="matrix(0.8559 0.5172 -0.5172 0.8559 108.2491 100.9294)">
				<stop  offset="0" style="stop-color:#74BF44"/>
				<stop  offset="1" style="stop-color:#007340"/>
			</linearGradient>
			<path fill="url(#SVGID_2_)" d="M191.81,141.292c0,0,9.267-26.11,37.092-24.398c27.809,1.714,45.361,20.421,68.052,17.153
				C243.82,200.484,191.81,141.292,191.81,141.292z"/>
			
				<linearGradient id="SVGID_3_" gradientUnits="userSpaceOnUse" x1="124.043" y1="-44.0332" x2="168.745" y2="-19.2298" gradientTransform="matrix(0.8559 0.5172 -0.5172 0.8559 108.2491 100.9294)">
				<stop  offset="0" style="stop-color:#74BF44"/>
				<stop  offset="1" style="stop-color:#007340"/>
			</linearGradient>
			<path fill="url(#SVGID_3_)" d="M194.522,140.634c22.718-14.372,76.9,9.922,98.05-4.308
				C289.494,139.91,247.587,195.638,194.522,140.634z"/>
		</g>
		<g>
			
				<linearGradient id="SVGID_4_" gradientUnits="userSpaceOnUse" x1="180.4756" y1="311.3477" x2="259.6104" y2="311.3477" gradientTransform="matrix(0.4053 -0.9142 0.9142 0.4053 -179.1741 143.459)">
				<stop  offset="0" style="stop-color:#74BF44"/>
				<stop  offset="1" style="stop-color:#007340"/>
			</linearGradient>
			<path fill="url(#SVGID_4_)" d="M203.084,114.313c0,0-29.431-5.15-31.073-30.671c-1.647-25.491,16.397-43.817,10.003-64.039
				C260.594,59.562,203.084,114.313,203.084,114.313z"/>
			
				<linearGradient id="SVGID_5_" gradientUnits="userSpaceOnUse" x1="210.9971" y1="304.7588" x2="253.815" y2="328.5168" gradientTransform="matrix(0.4053 -0.9142 0.9142 0.4053 -179.1741 143.459)">
				<stop  offset="0" style="stop-color:#74BF44"/>
				<stop  offset="1" style="stop-color:#007340"/>
			</linearGradient>
			<path fill="url(#SVGID_5_)" d="M202.024,111.916c-18.411-18.84,1.064-71.168-17.001-88.61
				C189.293,25.651,254.872,56.754,202.024,111.916z"/>
		</g>
		<g>
			
				<linearGradient id="SVGID_6_" gradientUnits="userSpaceOnUse" x1="83.167" y1="-69.459" x2="169.9971" y2="-69.459" gradientTransform="matrix(0.8618 0.5072 -0.5072 0.8618 99.0964 98.4435)">
				<stop  offset="0" style="stop-color:#74BF44"/>
				<stop  offset="1" style="stop-color:#007340"/>
			</linearGradient>
			<path fill="url(#SVGID_6_)" d="M191.91,105.775c0,0,8.938-26.203,36.779-24.792c27.819,1.408,45.615,19.945,68.264,16.427
				C244.668,164.401,191.91,105.775,191.91,105.775z"/>
			
				<linearGradient id="SVGID_7_" gradientUnits="userSpaceOnUse" x1="115.3618" y1="-76.0952" x2="160.1206" y2="-51.2603" gradientTransform="matrix(0.8618 0.5072 -0.5072 0.8618 99.0964 98.4435)">
				<stop  offset="0" style="stop-color:#74BF44"/>
				<stop  offset="1" style="stop-color:#007340"/>
			</linearGradient>
			<path fill="url(#SVGID_7_)" d="M194.618,105.09c22.526-14.61,77.011,9.104,97.98-5.361
				C289.568,103.352,248.36,159.513,194.618,105.09z"/>
		</g>
		<linearGradient id="SVGID_8_" gradientUnits="userSpaceOnUse" x1="-1.27" y1="165.9521" x2="245.8866" y2="194.8406">
			<stop  offset="0" style="stop-color:#EC1C24"/>
			<stop  offset="0.2039" style="stop-color:#E31A21"/>
			<stop  offset="0.5433" style="stop-color:#C9141B"/>
			<stop  offset="0.9742" style="stop-color:#A00C10"/>
			<stop  offset="1" style="stop-color:#9D0B0F"/>
		</linearGradient>
		<path fill="url(#SVGID_8_)" d="M37.882,68.031C6.417,96.871-0.015,268.884,27.175,293.81
			c27.194,24.926,214.844,19.025,246.309-9.814c43.063-39.471,25.208-119.793-39.852-179.444
			C168.567,44.924,80.934,28.563,37.882,68.031z"/>
		<path fill="#FFFFFF" d="M46.565,124.207c11.703-27.89,32.773-51.393,58.707-68.587c-44.567,16.075-74.733,46.689-74.733,81.879
			c0,9.776,2.342,19.195,6.654,28.061C37.771,152.056,40.722,138.145,46.565,124.207z"/>
		<path fill="#FCB415" d="M219.619,187.981c5.87-3.808,5.547-5.927,4.068-7.838c-1.499-1.924-3.555-2.897-9.414,0.923
			c-5.887,3.834-11.857,12.91-11.857,12.91S213.738,191.815,219.619,187.981z"/>
		<path fill="#FCB415" d="M164.875,187.573c5.578-4.149,5.102-6.245,3.491-8.062c-1.632-1.831-3.767-2.676-9.34,1.488
			c-5.589,4.177-10.887,13.608-10.887,13.608S159.286,191.762,164.875,187.573z"/>
		<path fill="#FCB415" d="M216.801,142.465c5.578-4.162,5.097-6.257,3.485-8.076c-1.632-1.831-3.756-2.659-9.335,1.491
			c-5.589,4.174-10.887,13.62-10.887,13.62S211.211,146.642,216.801,142.465z"/>
		<path fill="#FCB415" d="M90.083,255.039c5.574-4.162,5.097-6.258,3.492-8.063c-1.632-1.833-3.756-2.676-9.335,1.489
			c-5.589,4.176-10.887,13.607-10.887,13.607S84.494,259.215,90.083,255.039z"/>
		<path fill="#FCB415" d="M99.54,296.551c7.195-0.315,8.148-2.266,8.032-4.599c-0.132-2.346-1.292-4.188-8.477-3.873
			c-7.211,0.33-17.579,5.046-17.579,5.046S92.34,296.879,99.54,296.551z"/>
		<path fill="#FCB415" d="M124.16,147.379c3.719-5.638,2.501-7.457,0.313-8.681c-2.209-1.214-4.524-1.345-8.233,4.293
			c-3.725,5.665-5.24,16.191-5.24,16.191S120.446,153.044,124.16,147.379z"/>
		<path fill="#FCB415" d="M161.304,92.864c3.714-5.639,2.495-7.455,0.308-8.669c-2.204-1.224-4.52-1.355-8.233,4.283
			c-3.724,5.665-5.239,16.191-5.239,16.191S157.59,98.529,161.304,92.864z"/>
		<path fill="#FCB415" d="M175.667,131.03c4.472-5.165,3.507-7.114,1.51-8.576c-2.019-1.462-4.297-1.87-8.769,3.292
			c-4.466,5.191-7.438,15.441-7.438,15.441S171.19,136.208,175.667,131.03z"/>
		<path fill="#FCB415" d="M117.066,92.036c2.93-6.022,1.473-7.695-0.853-8.63c-2.347-0.976-4.673-0.843-7.603,5.177
			c-2.935,6.034-3.025,16.638-3.025,16.638S114.125,98.068,117.066,92.036z"/>
		<path fill="#FCB415" d="M80.239,110.425c1.622-6.427-0.153-7.812-2.644-8.351c-2.495-0.515-4.747,0.012-6.368,6.427
			c-1.626,6.442,0.487,16.876,0.487,16.876S78.618,116.869,80.239,110.425z"/>
		<path fill="#FCB415" d="M75.105,174.77c1.637-6.418-0.143-7.799-2.627-8.341c-2.511-0.527-4.758,0-6.384,6.415
			c-1.621,6.444,0.503,16.876,0.503,16.876S73.49,181.212,75.105,174.77z"/>
		<path fill="#FCB415" d="M51.265,233.656c1.621-6.442-0.159-7.812-2.633-8.339c-2.506-0.527-4.758,0-6.379,6.415
			c-1.626,6.442,0.493,16.876,0.493,16.876S49.638,240.086,51.265,233.656z"/>
		<path fill="#FCB415" d="M117.564,203.342c3.756-5.611,2.543-7.43,0.371-8.668c-2.199-1.224-4.514-1.382-8.275,4.229
			c-3.762,5.653-5.356,16.165-5.356,16.165S113.797,208.983,117.564,203.342z"/>
		<path fill="#FCB415" d="M203.031,291.307c7.136-0.805,7.936-2.819,7.623-5.15c-0.323-2.331-1.642-4.085-8.773-3.281
			c-7.157,0.843-17.106,6.258-17.106,6.258S195.873,292.137,203.031,291.307z"/>
		<path fill="#FCB415" d="M191.778,237.425c6.415-2.965,6.432-5.1,5.292-7.192c-1.181-2.108-3.057-3.347-9.473-0.369
			c-6.432,3.004-13.807,11.172-13.807,11.172S185.356,240.428,191.778,237.425z"/>
		<path fill="#FCB415" d="M264.212,213.856c6.411-2.965,6.427-5.1,5.282-7.207c-1.171-2.093-3.052-3.331-9.468-0.369
			c-6.426,3.004-13.807,11.187-13.807,11.187S257.785,216.848,264.212,213.856z"/>
		<path fill="#FCB415" d="M237.409,257.646c6.84-2.042,7.216-4.162,6.427-6.389c-0.806-2.238-2.458-3.729-9.298-1.673
			c-6.855,2.054-15.502,9.104-15.502,9.104S230.564,259.703,237.409,257.646z"/>
		<path fill="#FCB415" d="M147.942,236.674c5.786-3.911,5.404-6.021,3.899-7.903c-1.542-1.899-3.624-2.834-9.404,1.078
			c-5.791,3.953-11.561,13.148-11.561,13.148S142.162,240.612,147.942,236.674z"/>
		<path fill="#FCB415" d="M158.565,276.341c6.898-1.83,7.343-3.926,6.633-6.18c-0.727-2.266-2.32-3.808-9.229-1.974
			c-6.919,1.869-15.814,8.668-15.814,8.668S151.641,278.199,158.565,276.341z"/>
	</g>
</g>
</svg>
